<?xml version="1.0" encoding="UTF-8" standalone="no"?>
<!DOCTYPE svg PUBLIC "-//W3C//DTD SVG 1.1//EN"
 "http://www.w3.org/Graphics/SVG/1.1/DTD/svg11.dtd">
<!-- Generated by graphviz version 2.43.0 (0)
 -->
<!-- Title: ABoat::Tick60fps Pages: 1 -->
<!--zoomable 446 -->

<svg id="main" version="1.1" xmlns="http://www.w3.org/2000/svg" xmlns:xlink="http://www.w3.org/1999/xlink" xml:space="preserve" onload="init(evt)">

<style type="text/css"><![CDATA[
.node, .edge {opacity: 0.7;}
.node.selected, .edge.selected {opacity: 1;}
.edge:hover path { stroke: red; }
.edge:hover polygon { stroke: red; fill: red; }
]]></style>

<defs>
  <circle id="rim" cx="0" cy="0" r="7"/>
  <circle id="rim2" cx="0" cy="0" r="3.5"/>
  <g id="zoomPlus">
    <use xlink:href="#rim" fill="#404040"><set attributeName="fill" to="#808080" begin="zoomplus.mouseover" end="zoomplus.mouseout"/></use>
    <path d="M-4,0h8M0,-4v8" fill="none" stroke="white" stroke-width="1.5" pointer-events="none"/>
  </g>
  <g id="zoomMin">
    <use xlink:href="#rim" fill="#404040"><set attributeName="fill" to="#808080" begin="zoomminus.mouseover" end="zoomminus.mouseout"/></use>
    <path d="M-4,0h8" fill="none" stroke="white" stroke-width="1.5" pointer-events="none"/>
  </g>
  <g id="arrowUp" transform="translate(30 24)">
    <use xlink:href="#rim"/>
    <path pointer-events="none" fill="none" stroke="white" stroke-width="1.5" d="M0,-3.0v7 M-2.5,-0.5L0,-3.0L2.5,-0.5"/>
  </g>
  <g id="arrowRight" transform="rotate(90) translate(36 -43)">
    <use xlink:href="#rim"/>
    <path pointer-events="none" fill="none" stroke="white" stroke-width="1.5" d="M0,-3.0v7 M-2.5,-0.5L0,-3.0L2.5,-0.5"/>
  </g>
  <g id="arrowDown" transform="rotate(180) translate(-30 -48)">
    <use xlink:href="#rim"/>
    <path pointer-events="none" fill="none" stroke="white" stroke-width="1.5" d="M0,-3.0v7 M-2.5,-0.5L0,-3.0L2.5,-0.5"/>
  </g>
  <g id="arrowLeft" transform="rotate(270) translate(-36 17)">
    <use xlink:href="#rim"/>
    <path pointer-events="none" fill="none" stroke="white" stroke-width="1.5" d="M0,-3.0v7 M-2.5,-0.5L0,-3.0L2.5,-0.5"/>
  </g>
  <g id="resetDef">
    <use xlink:href="#rim2" fill="#404040"><set attributeName="fill" to="#808080" begin="reset.mouseover" end="reset.mouseout"/></use>
  </g>
</defs>
<script type="application/ecmascript">
var viewWidth = 939;
var viewHeight = 446;
var sectionId = 'dynsection-8';
</script>
<script type="application/ecmascript" xlink:href="svg.min.js"/>
<svg id="graph" class="graph">
<g id="viewport">
<title>ABoat::Tick60fps</title>
<!-- Node1 -->
<g id="Node000001" class="node">
<title>Node1</title>
<g id="a_Node000001"><a xlink:title=" ">
<polygon fill="#999999" stroke="#666666" points="99,-215 0,-215 0,-196 99,-196 99,-215"/>
<text text-anchor="middle" x="49.5" y="-203" font-family="Helvetica,sans-Serif" font-size="10.00">ABoat::Tick60fps</text>
</a>
</g>
</g>
<!-- Node2 -->
<g id="Node000002" class="node">
<title>Node2</title>
<g id="a_Node000002"><a xlink:href="classABoat.html#a3bf4384ddc2a42e84bef6c6ca038bd7e" target="_top" xlink:title=" ">
<polygon fill="white" stroke="#666666" points="271,-401 167,-401 167,-382 271,-382 271,-401"/>
<text text-anchor="middle" x="219" y="-389" font-family="Helvetica,sans-Serif" font-size="10.00">ABoat::AddSmoke</text>
</a>
</g>
</g>
<!-- Node1&#45;&gt;Node2 -->
<g id="edge1_Node000001_Node000002" class="edge">
<title>Node1&#45;&gt;Node2</title>
<g id="a_edge1_Node000001_Node000002"><a xlink:title=" ">
<path fill="none" stroke="#63b8ff" d="M54.55,-215.13C64.94,-238.96 94.63,-301.68 135,-341.5 150.02,-356.31 170.24,-368.61 186.96,-377.3"/>
<polygon fill="#63b8ff" stroke="#63b8ff" points="185.83,-380.65 196.33,-382 188.96,-374.39 185.83,-380.65"/>
</a>
</g>
</g>
<!-- Node8 -->
<g id="Node000008" class="node">
<title>Node8</title>
<g id="a_Node000008"><a xlink:href="code__80005FD0_8c.html#a4d94bc63f7aa18a802624ea904548946" target="_top" xlink:title=" ">
<polygon fill="white" stroke="#666666" points="273,-332.5 165,-332.5 165,-302.5 273,-302.5 273,-332.5"/>
<text text-anchor="start" x="173" y="-320.5" font-family="Helvetica,sans-Serif" font-size="10.00">adjust_position_by</text>
<text text-anchor="middle" x="219" y="-309.5" font-family="Helvetica,sans-Serif" font-size="10.00">_angle</text>
</a>
</g>
</g>
<!-- Node1&#45;&gt;Node8 -->
<g id="edge7_Node000001_Node000008" class="edge">
<title>Node1&#45;&gt;Node8</title>
<g id="a_edge7_Node000001_Node000008"><a xlink:title=" ">
<path fill="none" stroke="#63b8ff" d="M64.53,-215.02C81.28,-226.36 110.14,-245.88 135,-262.5 151.94,-273.82 170.87,-286.38 186.38,-296.63"/>
<polygon fill="#63b8ff" stroke="#63b8ff" points="184.79,-299.78 195.07,-302.38 188.65,-293.94 184.79,-299.78"/>
</a>
</g>
</g>
<!-- Node11 -->
<g id="Node000011" class="node">
<title>Node11</title>
<g id="a_Node000011"><a xlink:href="external_8c.html#acb60983213d09ee795e80ca3c8b5975e" target="_top" xlink:title=" ">
<polygon fill="white" stroke="#666666" points="265,-253 173,-253 173,-234 265,-234 265,-253"/>
<text text-anchor="middle" x="219" y="-241" font-family="Helvetica,sans-Serif" font-size="10.00">func_800C98B8</text>
</a>
</g>
</g>
<!-- Node1&#45;&gt;Node11 -->
<g id="edge10_Node000001_Node000011" class="edge">
<title>Node1&#45;&gt;Node11</title>
<g id="a_edge10_Node000001_Node000011"><a xlink:title=" ">
<path fill="none" stroke="#63b8ff" d="M92.77,-215.09C115.07,-220.15 142.62,-226.4 166.2,-231.75"/>
<polygon fill="#63b8ff" stroke="#63b8ff" points="165.51,-235.18 176.04,-233.98 167.06,-228.35 165.51,-235.18"/>
</a>
</g>
</g>
<!-- Node14 -->
<g id="Node000014" class="node">
<title>Node14</title>
<g id="a_Node000014"><a xlink:href="code__80005FD0_8c.html#a79cd9c001e0a06c9cab23fe2cf070abf" target="_top" xlink:title=" ">
<polygon fill="white" stroke="#666666" points="478,-216 339,-216 339,-197 478,-197 478,-216"/>
<text text-anchor="middle" x="408.5" y="-204" font-family="Helvetica,sans-Serif" font-size="10.00">get_angle_between_path</text>
</a>
</g>
</g>
<!-- Node1&#45;&gt;Node14 -->
<g id="edge13_Node000001_Node000014" class="edge">
<title>Node1&#45;&gt;Node14</title>
<g id="a_edge13_Node000001_Node000014"><a xlink:title=" ">
<path fill="none" stroke="#63b8ff" d="M99.02,-205.64C158.07,-205.8 258.59,-206.08 328.78,-206.28"/>
<polygon fill="#63b8ff" stroke="#63b8ff" points="328.89,-209.78 338.9,-206.31 328.91,-202.78 328.89,-209.78"/>
</a>
</g>
</g>
<!-- Node18 -->
<g id="Node000018" class="node">
<title>Node18</title>
<g id="a_Node000018"><a xlink:href="math__util_8c.html#a151b63b8adf9af7e4054b3b84bd226dc" target="_top" xlink:title=" ">
<polygon fill="white" stroke="#666666" points="255,-136 183,-136 183,-117 255,-117 255,-136"/>
<text text-anchor="middle" x="219" y="-124" font-family="Helvetica,sans-Serif" font-size="10.00">random_int</text>
</a>
</g>
</g>
<!-- Node1&#45;&gt;Node18 -->
<g id="edge17_Node000001_Node000018" class="edge">
<title>Node1&#45;&gt;Node18</title>
<g id="a_edge17_Node000001_Node000018"><a xlink:title=" ">
<path fill="none" stroke="#63b8ff" d="M61.11,-195.83C76.34,-182.49 105.77,-158.6 135,-145.5 146.82,-140.21 160.26,-136.31 172.84,-133.48"/>
<polygon fill="#63b8ff" stroke="#63b8ff" points="173.62,-136.89 182.69,-131.42 172.19,-130.04 173.62,-136.89"/>
</a>
</g>
</g>
<!-- Node20 -->
<g id="Node000020" class="node">
<title>Node20</title>
<g id="a_Node000020"><a xlink:href="code__80005FD0_8c.html#a6f8c9c39fb2e2613ec57cd1bda073e1d" target="_top" xlink:title=" ">
<polygon fill="white" stroke="#666666" points="273.5,-98.5 164.5,-98.5 164.5,-68.5 273.5,-68.5 273.5,-98.5"/>
<text text-anchor="start" x="172.5" y="-86.5" font-family="Helvetica,sans-Serif" font-size="10.00">set_vehicle_render</text>
<text text-anchor="middle" x="219" y="-75.5" font-family="Helvetica,sans-Serif" font-size="10.00">_distance_flags</text>
</a>
</g>
</g>
<!-- Node1&#45;&gt;Node20 -->
<g id="edge19_Node000001_Node000020" class="edge">
<title>Node1&#45;&gt;Node20</title>
<g id="a_edge19_Node000001_Node000020"><a xlink:title=" ">
<path fill="none" stroke="#63b8ff" d="M56.19,-195.93C68.23,-176.49 98.23,-132.25 135,-108.5 141.08,-104.57 147.81,-101.24 154.73,-98.41"/>
<polygon fill="#63b8ff" stroke="#63b8ff" points="156.09,-101.64 164.24,-94.86 153.65,-95.08 156.09,-101.64"/>
</a>
</g>
</g>
<!-- Node21 -->
<g id="Node000021" class="node">
<title>Node21</title>
<g id="a_Node000021"><a xlink:href="code__80005FD0_8c.html#a777de4239351e9266f8b367ce46cb936" target="_top" xlink:title=" ">
<polygon fill="white" stroke="#666666" points="303,-173 135,-173 135,-154 303,-154 303,-173"/>
<text text-anchor="middle" x="219" y="-161" font-family="Helvetica,sans-Serif" font-size="10.00">update_vehicle_following_path</text>
</a>
</g>
</g>
<!-- Node1&#45;&gt;Node21 -->
<g id="edge20_Node000001_Node000021" class="edge">
<title>Node1&#45;&gt;Node21</title>
<g id="a_edge20_Node000001_Node000021"><a xlink:title=" ">
<path fill="none" stroke="#63b8ff" d="M88.51,-195.97C112.62,-189.92 144.04,-182.05 169.88,-175.56"/>
<polygon fill="#63b8ff" stroke="#63b8ff" points="171,-178.89 179.85,-173.07 169.3,-172.1 171,-178.89"/>
</a>
</g>
</g>
<!-- Node3 -->
<g id="Node000003" class="node">
<title>Node3</title>
<g id="a_Node000003"><a xlink:href="update__objects_8c.html#a6e56a43ec98e81db05f2410893efa437" target="_top" xlink:title=" ">
<polygon fill="white" stroke="#666666" points="472.5,-438 344.5,-438 344.5,-419 472.5,-419 472.5,-438"/>
<text text-anchor="middle" x="408.5" y="-426" font-family="Helvetica,sans-Serif" font-size="10.00">add_unused_obj_index</text>
</a>
</g>
</g>
<!-- Node2&#45;&gt;Node3 -->
<g id="edge2_Node000002_Node000003" class="edge">
<title>Node2&#45;&gt;Node3</title>
<g id="a_edge2_Node000002_Node000003"><a xlink:title=" ">
<path fill="none" stroke="#63b8ff" d="M268.29,-401.03C292.9,-405.89 323.04,-411.83 348.97,-416.95"/>
<polygon fill="#63b8ff" stroke="#63b8ff" points="348.56,-420.44 359.05,-418.94 349.92,-413.57 348.56,-420.44"/>
</a>
</g>
</g>
<!-- Node5 -->
<g id="Node000005" class="node">
<title>Node5</title>
<g id="a_Node000005"><a xlink:href="update__objects_8c.html#a0b8b409c069a5db09c88c870e23260ab" target="_top" xlink:title=" ">
<polygon fill="white" stroke="#666666" points="457.5,-401 359.5,-401 359.5,-382 457.5,-382 457.5,-401"/>
<text text-anchor="middle" x="408.5" y="-389" font-family="Helvetica,sans-Serif" font-size="10.00">init_ferry_smoke</text>
</a>
</g>
</g>
<!-- Node2&#45;&gt;Node5 -->
<g id="edge4_Node000002_Node000005" class="edge">
<title>Node2&#45;&gt;Node5</title>
<g id="a_edge4_Node000002_Node000005"><a xlink:title=" ">
<path fill="none" stroke="#63b8ff" d="M271.24,-391.5C295.35,-391.5 324.22,-391.5 349.16,-391.5"/>
<polygon fill="#63b8ff" stroke="#63b8ff" points="349.23,-395 359.23,-391.5 349.23,-388 349.23,-395"/>
</a>
</g>
</g>
<!-- Node4 -->
<g id="Node000004" class="node">
<title>Node4</title>
<g id="a_Node000004"><a xlink:href="update__objects_8c.html#a92856990c4ca5fba1b8e0c61ca832c27" target="_top" xlink:title=" ">
<polygon fill="white" stroke="#666666" points="645.5,-438 517.5,-438 517.5,-419 645.5,-419 645.5,-438"/>
<text text-anchor="middle" x="581.5" y="-426" font-family="Helvetica,sans-Serif" font-size="10.00">find_unused_obj_index</text>
</a>
</g>
</g>
<!-- Node3&#45;&gt;Node4 -->
<g id="edge3_Node000003_Node000004" class="edge">
<title>Node3&#45;&gt;Node4</title>
<g id="a_edge3_Node000003_Node000004"><a xlink:title=" ">
<path fill="none" stroke="#63b8ff" d="M472.69,-428.5C483.95,-428.5 495.76,-428.5 507.27,-428.5"/>
<polygon fill="#63b8ff" stroke="#63b8ff" points="507.29,-432 517.29,-428.5 507.29,-425 507.29,-432"/>
</a>
</g>
</g>
<!-- Node6 -->
<g id="Node000006" class="node">
<title>Node6</title>
<g id="a_Node000006"><a xlink:href="update__objects_8c.html#abdebd086b5ff081f83af3d9205f39cd3" target="_top" xlink:title=" ">
<polygon fill="white" stroke="#666666" points="615.5,-401 547.5,-401 547.5,-382 615.5,-382 615.5,-401"/>
<text text-anchor="middle" x="581.5" y="-389" font-family="Helvetica,sans-Serif" font-size="10.00">init_object</text>
</a>
</g>
</g>
<!-- Node5&#45;&gt;Node6 -->
<g id="edge5_Node000005_Node000006" class="edge">
<title>Node5&#45;&gt;Node6</title>
<g id="a_edge5_Node000005_Node000006"><a xlink:title=" ">
<path fill="none" stroke="#63b8ff" d="M457.59,-391.5C482.65,-391.5 513.07,-391.5 537.37,-391.5"/>
<polygon fill="#63b8ff" stroke="#63b8ff" points="537.37,-395 547.37,-391.5 537.37,-388 537.37,-395"/>
</a>
</g>
</g>
<!-- Node7 -->
<g id="Node000007" class="node">
<title>Node7</title>
<g id="a_Node000007"><a xlink:href="update__objects_8c.html#af20e3f3c403dd4fbea56e358997e515a" target="_top" xlink:title=" ">
<polygon fill="white" stroke="#666666" points="813,-401 685,-401 685,-382 813,-382 813,-401"/>
<text text-anchor="middle" x="749" y="-389" font-family="Helvetica,sans-Serif" font-size="10.00">set_object_timer_state</text>
</a>
</g>
</g>
<!-- Node6&#45;&gt;Node7 -->
<g id="edge6_Node000006_Node000007" class="edge">
<title>Node6&#45;&gt;Node7</title>
<g id="a_edge6_Node000006_Node000007"><a xlink:title=" ">
<path fill="none" stroke="#63b8ff" d="M615.59,-391.5C632.62,-391.5 654.09,-391.5 674.76,-391.5"/>
<polygon fill="#63b8ff" stroke="#63b8ff" points="674.82,-395 684.82,-391.5 674.82,-388 674.82,-395"/>
</a>
</g>
</g>
<!-- Node9 -->
<g id="Node000009" class="node">
<title>Node9</title>
<g id="a_Node000009"><a xlink:href="math__util_8c.html#ae69cbf5c8d4b3b0dba2d7b4d4673689f" target="_top" xlink:title=" ">
<polygon fill="white" stroke="#666666" points="427.5,-364 389.5,-364 389.5,-345 427.5,-345 427.5,-364"/>
<text text-anchor="middle" x="408.5" y="-352" font-family="Helvetica,sans-Serif" font-size="10.00">coss</text>
</a>
</g>
</g>
<!-- Node8&#45;&gt;Node9 -->
<g id="edge8_Node000008_Node000009" class="edge">
<title>Node8&#45;&gt;Node9</title>
<g id="a_edge8_Node000008_Node000009"><a xlink:title=" ">
<path fill="none" stroke="#63b8ff" d="M273.23,-328C307.79,-334.82 351.45,-343.44 379.43,-348.96"/>
<polygon fill="#63b8ff" stroke="#63b8ff" points="378.84,-352.41 389.33,-350.91 380.2,-345.54 378.84,-352.41"/>
</a>
</g>
</g>
<!-- Node10 -->
<g id="Node000010" class="node">
<title>Node10</title>
<g id="a_Node000010"><a xlink:href="math__util_8c.html#a19ed3bd78fd2d3e2bd0a29f6caf48545" target="_top" xlink:title=" ">
<polygon fill="white" stroke="#666666" points="426.5,-327 390.5,-327 390.5,-308 426.5,-308 426.5,-327"/>
<text text-anchor="middle" x="408.5" y="-315" font-family="Helvetica,sans-Serif" font-size="10.00">sins</text>
</a>
</g>
</g>
<!-- Node8&#45;&gt;Node10 -->
<g id="edge9_Node000008_Node000010" class="edge">
<title>Node8&#45;&gt;Node10</title>
<g id="a_edge9_Node000008_Node000010"><a xlink:title=" ">
<path fill="none" stroke="#63b8ff" d="M273.23,-317.5C308.02,-317.5 352.03,-317.5 379.98,-317.5"/>
<polygon fill="#63b8ff" stroke="#63b8ff" points="380.21,-321 390.21,-317.5 380.21,-314 380.21,-321"/>
</a>
</g>
</g>
<!-- Node12 -->
<g id="Node000012" class="node">
<title>Node12</title>
<g id="a_Node000012"><a xlink:href="external_8c.html#a747de0be4005b4b29150d5c068564b7d" target="_top" xlink:title=" ">
<polygon fill="white" stroke="#666666" points="454.5,-290 362.5,-290 362.5,-271 454.5,-271 454.5,-290"/>
<text text-anchor="middle" x="408.5" y="-278" font-family="Helvetica,sans-Serif" font-size="10.00">func_800C1C88</text>
</a>
</g>
</g>
<!-- Node11&#45;&gt;Node12 -->
<g id="edge11_Node000011_Node000012" class="edge">
<title>Node11&#45;&gt;Node12</title>
<g id="a_edge11_Node000011_Node000012"><a xlink:title=" ">
<path fill="none" stroke="#63b8ff" d="M265.39,-252.46C291.55,-257.62 324.62,-264.15 352.28,-269.6"/>
<polygon fill="#63b8ff" stroke="#63b8ff" points="351.72,-273.06 362.2,-271.56 353.07,-266.19 351.72,-273.06"/>
</a>
</g>
</g>
<!-- Node13 -->
<g id="Node000013" class="node">
<title>Node13</title>
<g id="a_Node000013"><a xlink:href="external_8c.html#a475cff796211891556f52877cd8e9b9e" target="_top" xlink:title=" ">
<polygon fill="white" stroke="#666666" points="444.5,-253 372.5,-253 372.5,-234 444.5,-234 444.5,-253"/>
<text text-anchor="middle" x="408.5" y="-241" font-family="Helvetica,sans-Serif" font-size="10.00">play_sound</text>
</a>
</g>
</g>
<!-- Node11&#45;&gt;Node13 -->
<g id="edge12_Node000011_Node000013" class="edge">
<title>Node11&#45;&gt;Node13</title>
<g id="a_edge12_Node000011_Node000013"><a xlink:title=" ">
<path fill="none" stroke="#63b8ff" d="M265.39,-243.5C294.64,-243.5 332.53,-243.5 361.83,-243.5"/>
<polygon fill="#63b8ff" stroke="#63b8ff" points="362.21,-247 372.21,-243.5 362.21,-240 362.21,-247"/>
</a>
</g>
</g>
<!-- Node15 -->
<g id="Node000015" class="node">
<title>Node15</title>
<g id="a_Node000015"><a xlink:href="math__util_8c.html#a84cf9d4ec33146a64c230ed4cec56632" target="_top" xlink:title=" ">
<polygon fill="white" stroke="#666666" points="649,-221.5 514,-221.5 514,-191.5 649,-191.5 649,-221.5"/>
<text text-anchor="start" x="522" y="-209.5" font-family="Helvetica,sans-Serif" font-size="10.00">get_angle_between_two</text>
<text text-anchor="middle" x="581.5" y="-198.5" font-family="Helvetica,sans-Serif" font-size="10.00">_vectors</text>
</a>
</g>
</g>
<!-- Node14&#45;&gt;Node15 -->
<g id="edge14_Node000014_Node000015" class="edge">
<title>Node14&#45;&gt;Node15</title>
<g id="a_edge14_Node000014_Node000015"><a xlink:title=" ">
<path fill="none" stroke="#63b8ff" d="M478.07,-206.5C486.55,-206.5 495.26,-206.5 503.85,-206.5"/>
<polygon fill="#63b8ff" stroke="#63b8ff" points="503.86,-210 513.86,-206.5 503.86,-203 503.86,-210"/>
</a>
</g>
</g>
<!-- Node16 -->
<g id="Node000016" class="node">
<title>Node16</title>
<g id="a_Node000016"><a xlink:href="math__util_8c.html#aaa39a297477f56051975259f4bddd829" target="_top" xlink:title=" ">
<polygon fill="white" stroke="#666666" points="774,-216 724,-216 724,-197 774,-197 774,-216"/>
<text text-anchor="middle" x="749" y="-204" font-family="Helvetica,sans-Serif" font-size="10.00">atan2s</text>
</a>
</g>
</g>
<!-- Node15&#45;&gt;Node16 -->
<g id="edge15_Node000015_Node000016" class="edge">
<title>Node15&#45;&gt;Node16</title>
<g id="a_edge15_Node000015_Node000016"><a xlink:title=" ">
<path fill="none" stroke="#63b8ff" d="M649.34,-206.5C671.49,-206.5 695.22,-206.5 713.86,-206.5"/>
<polygon fill="#63b8ff" stroke="#63b8ff" points="713.92,-210 723.92,-206.5 713.92,-203 713.92,-210"/>
</a>
</g>
</g>
<!-- Node17 -->
<g id="Node000017" class="node">
<title>Node17</title>
<g id="a_Node000017"><a xlink:href="math__util_8c.html#a0273b0ea0783a06996c28669a7438ed9" target="_top" xlink:title=" ">
<polygon fill="white" stroke="#666666" points="931,-216 849,-216 849,-197 931,-197 931,-216"/>
<text text-anchor="middle" x="890" y="-204" font-family="Helvetica,sans-Serif" font-size="10.00">atan2_lookup</text>
</a>
</g>
</g>
<!-- Node16&#45;&gt;Node17 -->
<g id="edge16_Node000016_Node000017" class="edge">
<title>Node16&#45;&gt;Node17</title>
<g id="a_edge16_Node000016_Node000017"><a xlink:title=" ">
<path fill="none" stroke="#63b8ff" d="M774.21,-206.5C791.94,-206.5 816.63,-206.5 838.57,-206.5"/>
<polygon fill="#63b8ff" stroke="#63b8ff" points="838.75,-210 848.75,-206.5 838.75,-203 838.75,-210"/>
</a>
</g>
</g>
<!-- Node19 -->
<g id="Node000019" class="node">
<title>Node19</title>
<g id="a_Node000019"><a xlink:href="math__util_8c.html#a062850863585005ad1d0a75d9ff70693" target="_top" xlink:title=" ">
<polygon fill="white" stroke="#666666" points="447,-19 370,-19 370,0 447,0 447,-19"/>
<text text-anchor="middle" x="408.5" y="-7" font-family="Helvetica,sans-Serif" font-size="10.00">random_u16</text>
</a>
</g>
</g>
<!-- Node18&#45;&gt;Node19 -->
<g id="edge18_Node000018_Node000019" class="edge">
<title>Node18&#45;&gt;Node19</title>
<g id="a_edge18_Node000018_Node000019"><a xlink:title=" ">
<path fill="none" stroke="#63b8ff" d="M255,-125.47C271.14,-123.37 289.62,-118.46 303,-107.5 333.16,-82.79 309.24,-52.69 339,-27.5 345.07,-22.36 352.45,-18.67 360.08,-16.02"/>
<polygon fill="#63b8ff" stroke="#63b8ff" points="361.18,-19.35 369.81,-13.2 359.23,-12.62 361.18,-19.35"/>
</a>
</g>
</g>
<!-- Node21&#45;&gt;Node14 -->
<g id="edge22_Node000021_Node000014" class="edge">
<title>Node21&#45;&gt;Node14</title>
<g id="a_edge22_Node000021_Node000014"><a xlink:title=" ">
<path fill="none" stroke="#63b8ff" d="M261.61,-173.04C289.53,-179.45 326.49,-187.92 356.22,-194.74"/>
<polygon fill="#63b8ff" stroke="#63b8ff" points="355.47,-198.16 366,-196.98 357.04,-191.34 355.47,-198.16"/>
</a>
</g>
</g>
<!-- Node22 -->
<g id="Node000022" class="node">
<title>Node22</title>
<g id="a_Node000022"><a xlink:href="code__80005FD0_8c.html#ade9dca16c41c3d924b84f32a203ba823" target="_top" xlink:title=" ">
<polygon fill="white" stroke="#666666" points="468.5,-178.5 348.5,-178.5 348.5,-148.5 468.5,-148.5 468.5,-178.5"/>
<text text-anchor="start" x="356.5" y="-166.5" font-family="Helvetica,sans-Serif" font-size="10.00">find_closest_vehicles</text>
<text text-anchor="middle" x="408.5" y="-155.5" font-family="Helvetica,sans-Serif" font-size="10.00">_path_point</text>
</a>
</g>
</g>
<!-- Node21&#45;&gt;Node22 -->
<g id="edge21_Node000021_Node000022" class="edge">
<title>Node21&#45;&gt;Node22</title>
<g id="a_edge21_Node000021_Node000022"><a xlink:title=" ">
<path fill="none" stroke="#63b8ff" d="M303.06,-163.5C314.76,-163.5 326.68,-163.5 338.09,-163.5"/>
<polygon fill="#63b8ff" stroke="#63b8ff" points="338.4,-167 348.4,-163.5 338.4,-160 338.4,-167"/>
</a>
</g>
</g>
<!-- Node23 -->
<g id="Node000023" class="node">
<title>Node23</title>
<g id="a_Node000023"><a xlink:href="Game_8cpp.html#a545c1a384e93cc7b616dfee707f5d962" target="_top" xlink:title=" ">
<polygon fill="white" stroke="#666666" points="442.5,-130 374.5,-130 374.5,-111 442.5,-111 442.5,-130"/>
<text text-anchor="middle" x="408.5" y="-118" font-family="Helvetica,sans-Serif" font-size="10.00">IsDkJungle</text>
</a>
</g>
</g>
<!-- Node21&#45;&gt;Node23 -->
<g id="edge23_Node000021_Node000023" class="edge">
<title>Node21&#45;&gt;Node23</title>
<g id="a_edge23_Node000021_Node000023"><a xlink:title=" ">
<path fill="none" stroke="#63b8ff" d="M264.84,-153.96C277.21,-151.28 290.64,-148.32 303,-145.5 323.2,-140.89 345.53,-135.58 364.35,-131.04"/>
<polygon fill="#63b8ff" stroke="#63b8ff" points="365.23,-134.43 374.13,-128.67 363.59,-127.62 365.23,-134.43"/>
</a>
</g>
</g>
<!-- Node26 -->
<g id="Node000026" class="node">
<title>Node26</title>
<g id="a_Node000026"><a xlink:href="Game_8cpp.html#ad474b8b257813cceeae25ab5205273c4" target="_top" xlink:title=" ">
<polygon fill="white" stroke="#666666" points="457.5,-93 359.5,-93 359.5,-74 457.5,-74 457.5,-93"/>
<text text-anchor="middle" x="408.5" y="-81" font-family="Helvetica,sans-Serif" font-size="10.00">IsKalimariDesert</text>
</a>
</g>
</g>
<!-- Node21&#45;&gt;Node26 -->
<g id="edge26_Node000021_Node000026" class="edge">
<title>Node21&#45;&gt;Node26</title>
<g id="a_edge26_Node000021_Node000026"><a xlink:title=" ">
<path fill="none" stroke="#63b8ff" d="M284.64,-153.97C291.07,-151.71 297.32,-148.93 303,-145.5 324.33,-132.61 318.05,-116 339,-102.5 342.5,-100.24 346.27,-98.25 350.18,-96.5"/>
<polygon fill="#63b8ff" stroke="#63b8ff" points="351.47,-99.75 359.47,-92.81 348.89,-93.24 351.47,-99.75"/>
</a>
</g>
</g>
<!-- Node27 -->
<g id="Node000027" class="node">
<title>Node27</title>
<g id="a_Node000027"><a xlink:href="math_8h.html#a37bde043e94a6f074c78f10518fb5d99" target="_top" xlink:title=" ">
<polygon fill="white" stroke="#666666" points="428,-56 389,-56 389,-37 428,-37 428,-56"/>
<text text-anchor="middle" x="408.5" y="-44" font-family="Helvetica,sans-Serif" font-size="10.00">sqrtf</text>
</a>
</g>
</g>
<!-- Node21&#45;&gt;Node27 -->
<g id="edge29_Node000021_Node000027" class="edge">
<title>Node21&#45;&gt;Node27</title>
<g id="a_edge29_Node000021_Node000027"><a xlink:title=" ">
<path fill="none" stroke="#63b8ff" d="M289.42,-153.89C294.28,-151.61 298.88,-148.85 303,-145.5 333.56,-120.63 308.99,-90.02 339,-64.5 350.01,-55.13 365.36,-50.57 378.73,-48.38"/>
<polygon fill="#63b8ff" stroke="#63b8ff" points="379.44,-51.82 388.92,-47.08 378.56,-44.88 379.44,-51.82"/>
</a>
</g>
</g>
<!-- Node24 -->
<g id="Node000024" class="node">
<title>Node24</title>
<g id="a_Node000024"><a xlink:href="classWorld.html#a1a4dacc6aea0b846df998be0afc239f7" target="_top" xlink:title=" ">
<polygon fill="white" stroke="#666666" points="628,-93 535,-93 535,-74 628,-74 628,-93"/>
<text text-anchor="middle" x="581.5" y="-81" font-family="Helvetica,sans-Serif" font-size="10.00">World::GetTrack</text>
</a>
</g>
</g>
<!-- Node23&#45;&gt;Node24 -->
<g id="edge24_Node000023_Node000024" class="edge">
<title>Node23&#45;&gt;Node24</title>
<g id="a_edge24_Node000023_Node000024"><a xlink:title=" ">
<path fill="none" stroke="#63b8ff" d="M442.88,-113.28C466.68,-108.13 499.2,-101.09 526.66,-95.15"/>
<polygon fill="#63b8ff" stroke="#63b8ff" points="527.48,-98.55 536.52,-93.02 526,-91.71 527.48,-98.55"/>
</a>
</g>
</g>
<!-- Node25 -->
<g id="Node000025" class="node">
<title>Node25</title>
<g id="a_Node000025"><a xlink:href="Game_8cpp.html#ae2fa844b3cb1021ecbc357f8ed2ad8cc" target="_top" xlink:title=" ">
<polygon fill="white" stroke="#666666" points="612.5,-130 550.5,-130 550.5,-111 612.5,-111 612.5,-130"/>
<text text-anchor="middle" x="581.5" y="-118" font-family="Helvetica,sans-Serif" font-size="10.00">GetWorld</text>
</a>
</g>
</g>
<!-- Node23&#45;&gt;Node25 -->
<g id="edge25_Node000023_Node000025" class="edge">
<title>Node23&#45;&gt;Node25</title>
<g id="a_edge25_Node000023_Node000025"><a xlink:title=" ">
<path fill="none" stroke="#63b8ff" d="M442.88,-120.5C470.79,-120.5 510.68,-120.5 540.33,-120.5"/>
<polygon fill="#63b8ff" stroke="#63b8ff" points="540.36,-124 550.36,-120.5 540.36,-117 540.36,-124"/>
</a>
</g>
</g>
<!-- Node26&#45;&gt;Node24 -->
<g id="edge27_Node000026_Node000024" class="edge">
<title>Node26&#45;&gt;Node24</title>
<g id="a_edge27_Node000026_Node000024"><a xlink:title=" ">
<path fill="none" stroke="#63b8ff" d="M457.59,-83.5C478.48,-83.5 503.09,-83.5 524.77,-83.5"/>
<polygon fill="#63b8ff" stroke="#63b8ff" points="524.83,-87 534.83,-83.5 524.83,-80 524.83,-87"/>
</a>
</g>
</g>
<!-- Node26&#45;&gt;Node25 -->
<g id="edge28_Node000026_Node000025" class="edge">
<title>Node26&#45;&gt;Node25</title>
<g id="a_edge28_Node000026_Node000025"><a xlink:title=" ">
<path fill="none" stroke="#63b8ff" d="M453.54,-93.03C480.36,-98.83 514.36,-106.19 540.42,-111.83"/>
<polygon fill="#63b8ff" stroke="#63b8ff" points="539.83,-115.28 550.35,-113.98 541.31,-108.44 539.83,-115.28"/>
</a>
</g>
</g>
</g>
</svg>

<g id="navigator" transform="translate(0 0)" fill="#404254">
  <rect fill="#f2f5e9" fill-opacity="0.5" stroke="#606060" stroke-width=".5" x="0" y="0" width="60" height="60"/>
  <use id="zoomplus" xlink:href="#zoomPlus" x="17" y="9" onmousedown="handleZoom(evt,'in')"/>
  <use id="zoomminus" xlink:href="#zoomMin" x="42" y="9" onmousedown="handleZoom(evt,'out')"/>
  <use id="reset" xlink:href="#resetDef" x="30" y="36" onmousedown="handleReset()"/>
   <use id="arrowup" xlink:href="#arrowUp" x="0" y="0" onmousedown="handlePan(0,-1)"/>
  <use id="arrowright" xlink:href="#arrowRight" x="0" y="0" onmousedown="handlePan(1,0)"/>
  <use id="arrowdown" xlink:href="#arrowDown" x="0" y="0" onmousedown="handlePan(0,1)"/>
  <use id="arrowleft" xlink:href="#arrowLeft" x="0" y="0" onmousedown="handlePan(-1,0)"/>
</g>
<svg viewBox="0 0 15 15" width="100%" height="30px" preserveAspectRatio="xMaxYMin meet">
 <g id="arrow_out" transform="scale(0.3 0.3)">
  <a xlink:href="classABoat_a8643457903b0aa05e6ad21757747a6e3_cgraph_org.svg" target="_base">
   <rect id="button" ry="5" rx="5" y="6" x="6" height="38" width="38"
        fill="#f2f5e9" fill-opacity="0.5" stroke="#606060" stroke-width="1.0"/>
   <path id="arrow"
     d="M 11.500037,31.436501 C 11.940474,20.09759 22.043105,11.32322 32.158766,21.979434 L 37.068811,17.246167 C 37.068811,17.246167 37.088388,32 37.088388,32 L 22.160133,31.978069 C 22.160133,31.978069 26.997745,27.140456 26.997745,27.140456 C 18.528582,18.264221 13.291696,25.230495 11.500037,31.436501 z"
     style="fill:#404040;"/>
  </a>
 </g>
</svg>

<style type='text/css'>
<![CDATA[
[data-mouse-over-selected='false'] { opacity: 0.7; }
[data-mouse-over-selected='true']  { opacity: 1.0; }
]]>
</style>
<script type="application/ecmascript"><![CDATA[
document.addEventListener('DOMContentLoaded', (event) => {
  highlightEdges();
  highlightAdjacentNodes();
});
]]></script>
</svg>
