<?xml version="1.0" encoding="UTF-8" standalone="no"?>
<!DOCTYPE svg PUBLIC "-//W3C//DTD SVG 1.1//EN"
 "http://www.w3.org/Graphics/SVG/1.1/DTD/svg11.dtd">
<!-- Generated by graphviz version 2.43.0 (0)
 -->
<!-- Title: ABus::Tick60fps Pages: 1 -->
<!--zoomable 252 -->

<svg id="main" version="1.1" xmlns="http://www.w3.org/2000/svg" xmlns:xlink="http://www.w3.org/1999/xlink" xml:space="preserve" onload="init(evt)">

<style type="text/css"><![CDATA[
.node, .edge {opacity: 0.7;}
.node.selected, .edge.selected {opacity: 1;}
.edge:hover path { stroke: red; }
.edge:hover polygon { stroke: red; fill: red; }
]]></style>

<defs>
  <circle id="rim" cx="0" cy="0" r="7"/>
  <circle id="rim2" cx="0" cy="0" r="3.5"/>
  <g id="zoomPlus">
    <use xlink:href="#rim" fill="#404040"><set attributeName="fill" to="#808080" begin="zoomplus.mouseover" end="zoomplus.mouseout"/></use>
    <path d="M-4,0h8M0,-4v8" fill="none" stroke="white" stroke-width="1.5" pointer-events="none"/>
  </g>
  <g id="zoomMin">
    <use xlink:href="#rim" fill="#404040"><set attributeName="fill" to="#808080" begin="zoomminus.mouseover" end="zoomminus.mouseout"/></use>
    <path d="M-4,0h8" fill="none" stroke="white" stroke-width="1.5" pointer-events="none"/>
  </g>
  <g id="arrowUp" transform="translate(30 24)">
    <use xlink:href="#rim"/>
    <path pointer-events="none" fill="none" stroke="white" stroke-width="1.5" d="M0,-3.0v7 M-2.5,-0.5L0,-3.0L2.5,-0.5"/>
  </g>
  <g id="arrowRight" transform="rotate(90) translate(36 -43)">
    <use xlink:href="#rim"/>
    <path pointer-events="none" fill="none" stroke="white" stroke-width="1.5" d="M0,-3.0v7 M-2.5,-0.5L0,-3.0L2.5,-0.5"/>
  </g>
  <g id="arrowDown" transform="rotate(180) translate(-30 -48)">
    <use xlink:href="#rim"/>
    <path pointer-events="none" fill="none" stroke="white" stroke-width="1.5" d="M0,-3.0v7 M-2.5,-0.5L0,-3.0L2.5,-0.5"/>
  </g>
  <g id="arrowLeft" transform="rotate(270) translate(-36 17)">
    <use xlink:href="#rim"/>
    <path pointer-events="none" fill="none" stroke="white" stroke-width="1.5" d="M0,-3.0v7 M-2.5,-0.5L0,-3.0L2.5,-0.5"/>
  </g>
  <g id="resetDef">
    <use xlink:href="#rim2" fill="#404040"><set attributeName="fill" to="#808080" begin="reset.mouseover" end="reset.mouseout"/></use>
  </g>
</defs>
<script type="application/ecmascript">
var viewWidth = 1038;
var viewHeight = 252;
var sectionId = 'dynsection-6';
</script>
<script type="application/ecmascript" xlink:href="svg.min.js"/>
<svg id="graph" class="graph">
<g id="viewport">
<title>ABus::Tick60fps</title>
<!-- Node1 -->
<g id="Node000001" class="node">
<title>Node1</title>
<g id="a_Node000001"><a xlink:title=" ">
<polygon fill="#999999" stroke="#666666" points="95,-113 0,-113 0,-94 95,-94 95,-113"/>
<text text-anchor="middle" x="47.5" y="-101" font-family="Helvetica,sans-Serif" font-size="10.00">ABus::Tick60fps</text>
</a>
</g>
</g>
<!-- Node2 -->
<g id="Node000002" class="node">
<title>Node2</title>
<g id="a_Node000002"><a xlink:href="render__player_8c.html#af630bf89117f79abdb4e5edc8c67d00f" target="_top" xlink:title=" ">
<polygon fill="white" stroke="#666666" points="217.5,-244 138.5,-244 138.5,-225 217.5,-225 217.5,-244"/>
<text text-anchor="middle" x="178" y="-232" font-family="Helvetica,sans-Serif" font-size="10.00">adjust_angle</text>
</a>
</g>
</g>
<!-- Node1&#45;&gt;Node2 -->
<g id="edge1_Node000001_Node000002" class="edge">
<title>Node1&#45;&gt;Node2</title>
<g id="a_edge1_Node000001_Node000002"><a xlink:title=" ">
<path fill="none" stroke="#63b8ff" d="M53.98,-113.2C65.82,-133.46 95.58,-180.82 131,-210.5 135.12,-213.95 139.83,-217.1 144.61,-219.9"/>
<polygon fill="#63b8ff" stroke="#63b8ff" points="143.33,-223.18 153.79,-224.84 146.64,-217.02 143.33,-223.18"/>
</a>
</g>
</g>
<!-- Node3 -->
<g id="Node000003" class="node">
<title>Node3</title>
<g id="a_Node000003"><a xlink:href="code__80005FD0_8c.html#a45fa364fbae557a3d2025ebdc0846cd2" target="_top" xlink:title=" ">
<polygon fill="white" stroke="#666666" points="225,-132 131,-132 131,-113 225,-113 225,-132"/>
<text text-anchor="middle" x="178" y="-120" font-family="Helvetica,sans-Serif" font-size="10.00">func_8000D6D0</text>
</a>
</g>
</g>
<!-- Node1&#45;&gt;Node3 -->
<g id="edge2_Node000001_Node000003" class="edge">
<title>Node1&#45;&gt;Node3</title>
<g id="a_edge2_Node000001_Node000003"><a xlink:title=" ">
<path fill="none" stroke="#63b8ff" d="M95.25,-110.41C103.61,-111.65 112.39,-112.95 120.98,-114.22"/>
<polygon fill="#63b8ff" stroke="#63b8ff" points="120.52,-117.69 130.92,-115.69 121.54,-110.76 120.52,-117.69"/>
</a>
</g>
</g>
<!-- Node18 -->
<g id="Node000018" class="node">
<title>Node18</title>
<g id="a_Node000018"><a xlink:href="math__util_8c.html#a84cf9d4ec33146a64c230ed4cec56632" target="_top" xlink:title=" ">
<polygon fill="white" stroke="#666666" points="573.5,-211.5 438.5,-211.5 438.5,-181.5 573.5,-181.5 573.5,-211.5"/>
<text text-anchor="start" x="446.5" y="-199.5" font-family="Helvetica,sans-Serif" font-size="10.00">get_angle_between_two</text>
<text text-anchor="middle" x="506" y="-188.5" font-family="Helvetica,sans-Serif" font-size="10.00">_vectors</text>
</a>
</g>
</g>
<!-- Node1&#45;&gt;Node18 -->
<g id="edge28_Node000001_Node000018" class="edge">
<title>Node1&#45;&gt;Node18</title>
<g id="a_edge28_Node000001_Node000018"><a xlink:title=" ">
<path fill="none" stroke="#63b8ff" d="M67.84,-113.13C84.36,-121.12 108.88,-132.44 131,-140.5 187.44,-161.07 201.87,-166.89 261,-177.5 316.44,-187.45 379.9,-192.19 428.2,-194.44"/>
<polygon fill="#63b8ff" stroke="#63b8ff" points="428.12,-197.94 438.27,-194.89 428.43,-190.95 428.12,-197.94"/>
</a>
</g>
</g>
<!-- Node22 -->
<g id="Node000022" class="node">
<title>Node22</title>
<g id="a_Node000022"><a xlink:href="math_8h.html#a37bde043e94a6f074c78f10518fb5d99" target="_top" xlink:title=" ">
<polygon fill="white" stroke="#666666" points="350,-57 311,-57 311,-38 350,-38 350,-57"/>
<text text-anchor="middle" x="330.5" y="-45" font-family="Helvetica,sans-Serif" font-size="10.00">sqrtf</text>
</a>
</g>
</g>
<!-- Node1&#45;&gt;Node22 -->
<g id="edge29_Node000001_Node000022" class="edge">
<title>Node1&#45;&gt;Node22</title>
<g id="a_edge29_Node000001_Node000022"><a xlink:title=" ">
<path fill="none" stroke="#63b8ff" d="M65.59,-93.84C81.87,-85.13 107.33,-72.76 131,-66.5 189.89,-50.93 261.6,-47.79 300.69,-47.34"/>
<polygon fill="#63b8ff" stroke="#63b8ff" points="300.83,-50.84 310.81,-47.28 300.79,-43.84 300.83,-50.84"/>
</a>
</g>
</g>
<!-- Node23 -->
<g id="Node000023" class="node">
<title>Node23</title>
<g id="a_Node000023"><a xlink:href="code__80005FD0_8c.html#a124bae511133f507498b19842362feeb" target="_top" xlink:title=" ">
<polygon fill="white" stroke="#666666" points="224,-95 132,-95 132,-76 224,-76 224,-95"/>
<text text-anchor="middle" x="178" y="-83" font-family="Helvetica,sans-Serif" font-size="10.00">func_8000D940</text>
</a>
</g>
</g>
<!-- Node1&#45;&gt;Node23 -->
<g id="edge22_Node000001_Node000023" class="edge">
<title>Node1&#45;&gt;Node23</title>
<g id="a_edge22_Node000001_Node000023"><a xlink:title=" ">
<path fill="none" stroke="#63b8ff" d="M95.25,-96.95C103.82,-95.75 112.83,-94.49 121.61,-93.26"/>
<polygon fill="#63b8ff" stroke="#63b8ff" points="122.36,-96.69 131.78,-91.83 121.39,-89.76 122.36,-96.69"/>
</a>
</g>
</g>
<!-- Node24 -->
<g id="Node000024" class="node">
<title>Node24</title>
<g id="a_Node000024"><a xlink:href="code__80005FD0_8c.html#aae2ddfd0e3e328286b14ecb9199446ae" target="_top" xlink:title=" ">
<polygon fill="white" stroke="#666666" points="224,-19 132,-19 132,0 224,0 224,-19"/>
<text text-anchor="middle" x="178" y="-7" font-family="Helvetica,sans-Serif" font-size="10.00">func_80013C74</text>
</a>
</g>
</g>
<!-- Node1&#45;&gt;Node24 -->
<g id="edge27_Node000001_Node000024" class="edge">
<title>Node1&#45;&gt;Node24</title>
<g id="a_edge27_Node000001_Node000024"><a xlink:title=" ">
<path fill="none" stroke="#63b8ff" d="M58.58,-93.65C73.56,-79.31 102.95,-52.37 131,-33.5 136.08,-30.09 141.69,-26.79 147.21,-23.8"/>
<polygon fill="#63b8ff" stroke="#63b8ff" points="149.04,-26.8 156.29,-19.07 145.8,-20.59 149.04,-26.8"/>
</a>
</g>
</g>
<!-- Node4 -->
<g id="Node000004" class="node">
<title>Node4</title>
<g id="a_Node000004"><a xlink:href="code__80005FD0_8c.html#aff1ba4b22fc22c38fcf28007ccaaa752" target="_top" xlink:title=" ">
<polygon fill="white" stroke="#666666" points="377,-94 284,-94 284,-75 377,-75 377,-94"/>
<text text-anchor="middle" x="330.5" y="-82" font-family="Helvetica,sans-Serif" font-size="10.00">func_8000D2B4</text>
</a>
</g>
</g>
<!-- Node3&#45;&gt;Node4 -->
<g id="edge3_Node000003_Node000004" class="edge">
<title>Node3&#45;&gt;Node4</title>
<g id="a_edge3_Node000003_Node000004"><a xlink:title=" ">
<path fill="none" stroke="#63b8ff" d="M216.98,-112.91C236.66,-107.94 260.89,-101.82 281.82,-96.54"/>
<polygon fill="#63b8ff" stroke="#63b8ff" points="282.96,-99.86 291.8,-94.02 281.24,-93.07 282.96,-99.86"/>
</a>
</g>
</g>
<!-- Node17 -->
<g id="Node000017" class="node">
<title>Node17</title>
<g id="a_Node000017"><a xlink:href="code__80005FD0_8c.html#a79cd9c001e0a06c9cab23fe2cf070abf" target="_top" xlink:title=" ">
<polygon fill="white" stroke="#666666" points="400,-168 261,-168 261,-149 400,-149 400,-168"/>
<text text-anchor="middle" x="330.5" y="-156" font-family="Helvetica,sans-Serif" font-size="10.00">get_angle_between_path</text>
</a>
</g>
</g>
<!-- Node3&#45;&gt;Node17 -->
<g id="edge16_Node000003_Node000017" class="edge">
<title>Node3&#45;&gt;Node17</title>
<g id="a_edge16_Node000003_Node000017"><a xlink:title=" ">
<path fill="none" stroke="#63b8ff" d="M218.94,-132.05C237.63,-136.53 260.1,-141.9 279.87,-146.63"/>
<polygon fill="#63b8ff" stroke="#63b8ff" points="279.1,-150.04 289.64,-148.97 280.73,-143.23 279.1,-150.04"/>
</a>
</g>
</g>
<!-- Node21 -->
<g id="Node000021" class="node">
<title>Node21</title>
<g id="a_Node000021"><a xlink:href="code__80005FD0_8c.html#a83974499a323e99b007956bf9c0e25ff" target="_top" xlink:title=" ">
<polygon fill="white" stroke="#666666" points="400,-131 261,-131 261,-112 400,-112 400,-131"/>
<text text-anchor="middle" x="330.5" y="-119" font-family="Helvetica,sans-Serif" font-size="10.00">set_track_offset_position</text>
</a>
</g>
</g>
<!-- Node3&#45;&gt;Node21 -->
<g id="edge20_Node000003_Node000021" class="edge">
<title>Node3&#45;&gt;Node21</title>
<g id="a_edge20_Node000003_Node000021"><a xlink:title=" ">
<path fill="none" stroke="#63b8ff" d="M225.38,-122.19C233.45,-122.14 242.05,-122.08 250.7,-122.02"/>
<polygon fill="#63b8ff" stroke="#63b8ff" points="250.88,-125.52 260.86,-121.96 250.84,-118.52 250.88,-125.52"/>
</a>
</g>
</g>
<!-- Node3&#45;&gt;Node22 -->
<g id="edge21_Node000003_Node000022" class="edge">
<title>Node3&#45;&gt;Node22</title>
<g id="a_edge21_Node000003_Node000022"><a xlink:title=" ">
<path fill="none" stroke="#63b8ff" d="M207.7,-112.84C213.66,-110.24 219.73,-107.12 225,-103.5 244.17,-90.32 240.98,-77.35 261,-65.5 273.07,-58.35 287.98,-54 300.81,-51.37"/>
<polygon fill="#63b8ff" stroke="#63b8ff" points="301.76,-54.76 310.98,-49.55 300.52,-47.87 301.76,-54.76"/>
</a>
</g>
</g>
<!-- Node5 -->
<g id="Node000005" class="node">
<title>Node5</title>
<g id="a_Node000005"><a xlink:href="code__80005FD0_8c.html#a52b991f7bfc8a37a05bbb3ede096fb6a" target="_top" xlink:title=" ">
<polygon fill="white" stroke="#666666" points="576,-54 436,-54 436,-35 576,-35 576,-54"/>
<text text-anchor="middle" x="506" y="-42" font-family="Helvetica,sans-Serif" font-size="10.00">adjust_path_at_start_line</text>
</a>
</g>
</g>
<!-- Node4&#45;&gt;Node5 -->
<g id="edge4_Node000004_Node000005" class="edge">
<title>Node4&#45;&gt;Node5</title>
<g id="a_edge4_Node000004_Node000005"><a xlink:title=" ">
<path fill="none" stroke="#63b8ff" d="M373.06,-74.92C397.31,-69.33 428.09,-62.23 453.83,-56.3"/>
<polygon fill="#63b8ff" stroke="#63b8ff" points="454.82,-59.66 463.78,-54 453.25,-52.84 454.82,-59.66"/>
</a>
</g>
</g>
<!-- Node6 -->
<g id="Node000006" class="node">
<title>Node6</title>
<g id="a_Node000006"><a xlink:href="code__80005FD0_8c.html#aae3d2d6e27d79a30dfe68c64e771b5b1" target="_top" xlink:title=" ">
<polygon fill="white" stroke="#666666" points="552.5,-128 459.5,-128 459.5,-109 552.5,-109 552.5,-128"/>
<text text-anchor="middle" x="506" y="-116" font-family="Helvetica,sans-Serif" font-size="10.00">func_8000D24C</text>
</a>
</g>
</g>
<!-- Node4&#45;&gt;Node6 -->
<g id="edge5_Node000004_Node000006" class="edge">
<title>Node4&#45;&gt;Node6</title>
<g id="a_edge5_Node000004_Node000006"><a xlink:title=" ">
<path fill="none" stroke="#63b8ff" d="M377.09,-93.43C399.21,-97.77 425.99,-103.02 449.32,-107.59"/>
<polygon fill="#63b8ff" stroke="#63b8ff" points="448.93,-111.08 459.42,-109.57 450.28,-104.21 448.93,-111.08"/>
</a>
</g>
</g>
<!-- Node16 -->
<g id="Node000016" class="node">
<title>Node16</title>
<g id="a_Node000016"><a xlink:href="code__80005FD0_8c.html#a041b53794d8d64878d2cf5e0dea65b80" target="_top" xlink:title=" ">
<polygon fill="white" stroke="#666666" points="561,-91 451,-91 451,-72 561,-72 561,-91"/>
<text text-anchor="middle" x="506" y="-79" font-family="Helvetica,sans-Serif" font-size="10.00">update_path_index</text>
</a>
</g>
</g>
<!-- Node4&#45;&gt;Node16 -->
<g id="edge15_Node000004_Node000016" class="edge">
<title>Node4&#45;&gt;Node16</title>
<g id="a_edge15_Node000004_Node000016"><a xlink:title=" ">
<path fill="none" stroke="#63b8ff" d="M377.09,-83.71C396.5,-83.38 419.49,-82.98 440.59,-82.61"/>
<polygon fill="#63b8ff" stroke="#63b8ff" points="440.84,-86.11 450.78,-82.44 440.72,-79.11 440.84,-86.11"/>
</a>
</g>
</g>
<!-- Node7 -->
<g id="Node000007" class="node">
<title>Node7</title>
<g id="a_Node000007"><a xlink:href="collision_8c.html#a54e6978a422f1ce11019accf727ce1bc" target="_top" xlink:title=" ">
<polygon fill="white" stroke="#666666" points="753,-88 612,-88 612,-69 753,-69 753,-88"/>
<text text-anchor="middle" x="682.5" y="-76" font-family="Helvetica,sans-Serif" font-size="10.00">check_bounding_collision</text>
</a>
</g>
</g>
<!-- Node6&#45;&gt;Node7 -->
<g id="edge6_Node000006_Node000007" class="edge">
<title>Node6&#45;&gt;Node7</title>
<g id="a_edge6_Node000006_Node000007"><a xlink:title=" ">
<path fill="none" stroke="#63b8ff" d="M548.8,-108.92C573.19,-103.33 604.15,-96.23 630.03,-90.3"/>
<polygon fill="#63b8ff" stroke="#63b8ff" points="631.08,-93.65 640.04,-88 629.51,-86.83 631.08,-93.65"/>
</a>
</g>
</g>
<!-- Node11 -->
<g id="Node000011" class="node">
<title>Node11</title>
<g id="a_Node000011"><a xlink:href="code__80005FD0_8c.html#a64865cf2565ef9f4215c5fa73b04233f" target="_top" xlink:title=" ">
<polygon fill="white" stroke="#666666" points="748,-173.5 617,-173.5 617,-143.5 748,-143.5 748,-173.5"/>
<text text-anchor="start" x="625" y="-161.5" font-family="Helvetica,sans-Serif" font-size="10.00">find_closest_path_point</text>
<text text-anchor="middle" x="682.5" y="-150.5" font-family="Helvetica,sans-Serif" font-size="10.00">_track_section</text>
</a>
</g>
</g>
<!-- Node6&#45;&gt;Node11 -->
<g id="edge10_Node000006_Node000011" class="edge">
<title>Node6&#45;&gt;Node11</title>
<g id="a_edge10_Node000006_Node000011"><a xlink:title=" ">
<path fill="none" stroke="#63b8ff" d="M548.8,-128.08C566.22,-132.07 587,-136.84 606.88,-141.4"/>
<polygon fill="#63b8ff" stroke="#63b8ff" points="606.34,-144.86 616.87,-143.68 607.9,-138.04 606.34,-144.86"/>
</a>
</g>
</g>
<!-- Node15 -->
<g id="Node000015" class="node">
<title>Node15</title>
<g id="a_Node000015"><a xlink:href="collision_8c.html#a053809031f467d0a6747788211e0ec69" target="_top" xlink:title=" ">
<polygon fill="white" stroke="#666666" points="741,-125 624,-125 624,-106 741,-106 741,-125"/>
<text text-anchor="middle" x="682.5" y="-113" font-family="Helvetica,sans-Serif" font-size="10.00">get_track_section_id</text>
</a>
</g>
</g>
<!-- Node6&#45;&gt;Node15 -->
<g id="edge14_Node000006_Node000015" class="edge">
<title>Node6&#45;&gt;Node15</title>
<g id="a_edge14_Node000006_Node000015"><a xlink:title=" ">
<path fill="none" stroke="#63b8ff" d="M552.85,-117.71C571.42,-117.39 593.25,-117.02 613.6,-116.67"/>
<polygon fill="#63b8ff" stroke="#63b8ff" points="613.83,-120.16 623.77,-116.49 613.71,-113.17 613.83,-120.16"/>
</a>
</g>
</g>
<!-- Node8 -->
<g id="Node000008" class="node">
<title>Node8</title>
<g id="a_Node000008"><a xlink:href="collision_8c.html#a0275aa1dbebf396284ce1c268724e4cb" target="_top" xlink:title=" ">
<polygon fill="white" stroke="#666666" points="899,-88 791,-88 791,-69 899,-69 899,-88"/>
<text text-anchor="middle" x="845" y="-76" font-family="Helvetica,sans-Serif" font-size="10.00">check_collision_yx</text>
</a>
</g>
</g>
<!-- Node7&#45;&gt;Node8 -->
<g id="edge7_Node000007_Node000008" class="edge">
<title>Node7&#45;&gt;Node8</title>
<g id="a_edge7_Node000007_Node000008"><a xlink:title=" ">
<path fill="none" stroke="#63b8ff" d="M753.43,-78.5C762.42,-78.5 771.58,-78.5 780.45,-78.5"/>
<polygon fill="#63b8ff" stroke="#63b8ff" points="780.72,-82 790.72,-78.5 780.72,-75 780.72,-82"/>
</a>
</g>
</g>
<!-- Node9 -->
<g id="Node000009" class="node">
<title>Node9</title>
<g id="a_Node000009"><a xlink:href="collision_8c.html#a15e47b9a6091ddc40b05f6ec8f998c2f" target="_top" xlink:title=" ">
<polygon fill="white" stroke="#666666" points="898.5,-51 791.5,-51 791.5,-32 898.5,-32 898.5,-51"/>
<text text-anchor="middle" x="845" y="-39" font-family="Helvetica,sans-Serif" font-size="10.00">check_collision_zx</text>
</a>
</g>
</g>
<!-- Node7&#45;&gt;Node9 -->
<g id="edge8_Node000007_Node000009" class="edge">
<title>Node7&#45;&gt;Node9</title>
<g id="a_edge8_Node000007_Node000009"><a xlink:title=" ">
<path fill="none" stroke="#63b8ff" d="M724.83,-68.97C745.53,-64.2 770.79,-58.38 792.72,-53.32"/>
<polygon fill="#63b8ff" stroke="#63b8ff" points="793.57,-56.72 802.53,-51.06 792,-49.9 793.57,-56.72"/>
</a>
</g>
</g>
<!-- Node10 -->
<g id="Node000010" class="node">
<title>Node10</title>
<g id="a_Node000010"><a xlink:href="collision_8c.html#a03e3d0e180a4bc7be74b0d9d4ebc5f49" target="_top" xlink:title=" ">
<polygon fill="white" stroke="#666666" points="898.5,-125 791.5,-125 791.5,-106 898.5,-106 898.5,-125"/>
<text text-anchor="middle" x="845" y="-113" font-family="Helvetica,sans-Serif" font-size="10.00">check_collision_zy</text>
</a>
</g>
</g>
<!-- Node7&#45;&gt;Node10 -->
<g id="edge9_Node000007_Node000010" class="edge">
<title>Node7&#45;&gt;Node10</title>
<g id="a_edge9_Node000007_Node000010"><a xlink:title=" ">
<path fill="none" stroke="#63b8ff" d="M724.83,-88.03C745.53,-92.8 770.79,-98.62 792.72,-103.68"/>
<polygon fill="#63b8ff" stroke="#63b8ff" points="792,-107.1 802.53,-105.94 793.57,-100.28 792,-107.1"/>
</a>
</g>
</g>
<!-- Node12 -->
<g id="Node000012" class="node">
<title>Node12</title>
<g id="a_Node000012"><a xlink:href="Game_8cpp.html#aab0dcf46f6e6e4516bf79ea3f519c765" target="_top" xlink:title=" ">
<polygon fill="white" stroke="#666666" points="901,-168 789,-168 789,-149 901,-149 901,-168"/>
<text text-anchor="middle" x="845" y="-156" font-family="Helvetica,sans-Serif" font-size="10.00">IsPodiumCeremony</text>
</a>
</g>
</g>
<!-- Node11&#45;&gt;Node12 -->
<g id="edge11_Node000011_Node000012" class="edge">
<title>Node11&#45;&gt;Node12</title>
<g id="a_edge11_Node000011_Node000012"><a xlink:title=" ">
<path fill="none" stroke="#63b8ff" d="M748.32,-158.5C758.33,-158.5 768.67,-158.5 778.69,-158.5"/>
<polygon fill="#63b8ff" stroke="#63b8ff" points="778.99,-162 788.99,-158.5 778.99,-155 778.99,-162"/>
</a>
</g>
</g>
<!-- Node13 -->
<g id="Node000013" class="node">
<title>Node13</title>
<g id="a_Node000013"><a xlink:href="classWorld.html#a1a4dacc6aea0b846df998be0afc239f7" target="_top" xlink:title=" ">
<polygon fill="white" stroke="#666666" points="1030,-186 937,-186 937,-167 1030,-167 1030,-186"/>
<text text-anchor="middle" x="983.5" y="-174" font-family="Helvetica,sans-Serif" font-size="10.00">World::GetTrack</text>
</a>
</g>
</g>
<!-- Node12&#45;&gt;Node13 -->
<g id="edge12_Node000012_Node000013" class="edge">
<title>Node12&#45;&gt;Node13</title>
<g id="a_edge12_Node000012_Node000013"><a xlink:title=" ">
<path fill="none" stroke="#63b8ff" d="M901.13,-165.77C909.54,-166.88 918.24,-168.03 926.67,-169.14"/>
<polygon fill="#63b8ff" stroke="#63b8ff" points="926.41,-172.63 936.79,-170.47 927.33,-165.69 926.41,-172.63"/>
</a>
</g>
</g>
<!-- Node14 -->
<g id="Node000014" class="node">
<title>Node14</title>
<g id="a_Node000014"><a xlink:href="Game_8cpp.html#ae2fa844b3cb1021ecbc357f8ed2ad8cc" target="_top" xlink:title=" ">
<polygon fill="white" stroke="#666666" points="1014.5,-149 952.5,-149 952.5,-130 1014.5,-130 1014.5,-149"/>
<text text-anchor="middle" x="983.5" y="-137" font-family="Helvetica,sans-Serif" font-size="10.00">GetWorld</text>
</a>
</g>
</g>
<!-- Node12&#45;&gt;Node14 -->
<g id="edge13_Node000012_Node000014" class="edge">
<title>Node12&#45;&gt;Node14</title>
<g id="a_edge13_Node000012_Node000014"><a xlink:title=" ">
<path fill="none" stroke="#63b8ff" d="M901.13,-150.83C914.9,-148.91 929.43,-146.89 942.32,-145.09"/>
<polygon fill="#63b8ff" stroke="#63b8ff" points="942.86,-148.55 952.28,-143.71 941.89,-141.62 942.86,-148.55"/>
</a>
</g>
</g>
<!-- Node17&#45;&gt;Node18 -->
<g id="edge17_Node000017_Node000018" class="edge">
<title>Node17&#45;&gt;Node18</title>
<g id="a_edge17_Node000017_Node000018"><a xlink:title=" ">
<path fill="none" stroke="#63b8ff" d="M375.28,-168.09C391.37,-171.61 410.11,-175.72 428.25,-179.69"/>
<polygon fill="#63b8ff" stroke="#63b8ff" points="427.73,-183.16 438.25,-181.88 429.23,-176.32 427.73,-183.16"/>
</a>
</g>
</g>
<!-- Node19 -->
<g id="Node000019" class="node">
<title>Node19</title>
<g id="a_Node000019"><a xlink:href="math__util_8c.html#aaa39a297477f56051975259f4bddd829" target="_top" xlink:title=" ">
<polygon fill="white" stroke="#666666" points="707.5,-211 657.5,-211 657.5,-192 707.5,-192 707.5,-211"/>
<text text-anchor="middle" x="682.5" y="-199" font-family="Helvetica,sans-Serif" font-size="10.00">atan2s</text>
</a>
</g>
</g>
<!-- Node18&#45;&gt;Node19 -->
<g id="edge18_Node000018_Node000019" class="edge">
<title>Node18&#45;&gt;Node19</title>
<g id="a_edge18_Node000018_Node000019"><a xlink:title=" ">
<path fill="none" stroke="#63b8ff" d="M573.97,-198.42C598.85,-199.13 626.06,-199.91 646.88,-200.51"/>
<polygon fill="#63b8ff" stroke="#63b8ff" points="647.05,-204.01 657.14,-200.8 647.25,-197.02 647.05,-204.01"/>
</a>
</g>
</g>
<!-- Node20 -->
<g id="Node000020" class="node">
<title>Node20</title>
<g id="a_Node000020"><a xlink:href="math__util_8c.html#a0273b0ea0783a06996c28669a7438ed9" target="_top" xlink:title=" ">
<polygon fill="white" stroke="#666666" points="886,-211 804,-211 804,-192 886,-192 886,-211"/>
<text text-anchor="middle" x="845" y="-199" font-family="Helvetica,sans-Serif" font-size="10.00">atan2_lookup</text>
</a>
</g>
</g>
<!-- Node19&#45;&gt;Node20 -->
<g id="edge19_Node000019_Node000020" class="edge">
<title>Node19&#45;&gt;Node20</title>
<g id="a_edge19_Node000019_Node000020"><a xlink:title=" ">
<path fill="none" stroke="#63b8ff" d="M707.53,-201.5C730.19,-201.5 764.88,-201.5 793.61,-201.5"/>
<polygon fill="#63b8ff" stroke="#63b8ff" points="793.89,-205 803.89,-201.5 793.89,-198 793.89,-205"/>
</a>
</g>
</g>
<!-- Node23&#45;&gt;Node4 -->
<g id="edge23_Node000023_Node000004" class="edge">
<title>Node23&#45;&gt;Node4</title>
<g id="a_edge23_Node000023_Node000004"><a xlink:title=" ">
<path fill="none" stroke="#63b8ff" d="M224.15,-85.2C239.64,-85.1 257.16,-84.98 273.4,-84.87"/>
<polygon fill="#63b8ff" stroke="#63b8ff" points="273.88,-88.37 283.86,-84.8 273.83,-81.37 273.88,-88.37"/>
</a>
</g>
</g>
<!-- Node23&#45;&gt;Node17 -->
<g id="edge24_Node000023_Node000017" class="edge">
<title>Node23&#45;&gt;Node17</title>
<g id="a_edge24_Node000023_Node000017"><a xlink:title=" ">
<path fill="none" stroke="#63b8ff" d="M209.09,-95.2C214.59,-97.54 220.12,-100.31 225,-103.5 243.94,-115.89 241.45,-128.1 261,-139.5 264.72,-141.67 268.69,-143.6 272.79,-145.32"/>
<polygon fill="#63b8ff" stroke="#63b8ff" points="271.9,-148.72 282.49,-148.94 274.35,-142.16 271.9,-148.72"/>
</a>
</g>
</g>
<!-- Node23&#45;&gt;Node21 -->
<g id="edge25_Node000023_Node000021" class="edge">
<title>Node23&#45;&gt;Node21</title>
<g id="a_edge25_Node000023_Node000021"><a xlink:title=" ">
<path fill="none" stroke="#63b8ff" d="M218.94,-95.05C237.63,-99.53 260.1,-104.9 279.87,-109.63"/>
<polygon fill="#63b8ff" stroke="#63b8ff" points="279.1,-113.04 289.64,-111.97 280.73,-106.23 279.1,-113.04"/>
</a>
</g>
</g>
<!-- Node23&#45;&gt;Node22 -->
<g id="edge26_Node000023_Node000022" class="edge">
<title>Node23&#45;&gt;Node22</title>
<g id="a_edge26_Node000023_Node000022"><a xlink:title=" ">
<path fill="none" stroke="#63b8ff" d="M216.98,-75.91C243.07,-69.32 277.16,-60.71 300.96,-54.71"/>
<polygon fill="#63b8ff" stroke="#63b8ff" points="301.94,-58.07 310.78,-52.23 300.23,-51.28 301.94,-58.07"/>
</a>
</g>
</g>
</g>
</svg>

<g id="navigator" transform="translate(0 0)" fill="#404254">
  <rect fill="#f2f5e9" fill-opacity="0.5" stroke="#606060" stroke-width=".5" x="0" y="0" width="60" height="60"/>
  <use id="zoomplus" xlink:href="#zoomPlus" x="17" y="9" onmousedown="handleZoom(evt,'in')"/>
  <use id="zoomminus" xlink:href="#zoomMin" x="42" y="9" onmousedown="handleZoom(evt,'out')"/>
  <use id="reset" xlink:href="#resetDef" x="30" y="36" onmousedown="handleReset()"/>
   <use id="arrowup" xlink:href="#arrowUp" x="0" y="0" onmousedown="handlePan(0,-1)"/>
  <use id="arrowright" xlink:href="#arrowRight" x="0" y="0" onmousedown="handlePan(1,0)"/>
  <use id="arrowdown" xlink:href="#arrowDown" x="0" y="0" onmousedown="handlePan(0,1)"/>
  <use id="arrowleft" xlink:href="#arrowLeft" x="0" y="0" onmousedown="handlePan(-1,0)"/>
</g>
<svg viewBox="0 0 15 15" width="100%" height="30px" preserveAspectRatio="xMaxYMin meet">
 <g id="arrow_out" transform="scale(0.3 0.3)">
  <a xlink:href="classABus_ad7f27537db486b628c99975edd27a47f_cgraph_org.svg" target="_base">
   <rect id="button" ry="5" rx="5" y="6" x="6" height="38" width="38"
        fill="#f2f5e9" fill-opacity="0.5" stroke="#606060" stroke-width="1.0"/>
   <path id="arrow"
     d="M 11.500037,31.436501 C 11.940474,20.09759 22.043105,11.32322 32.158766,21.979434 L 37.068811,17.246167 C 37.068811,17.246167 37.088388,32 37.088388,32 L 22.160133,31.978069 C 22.160133,31.978069 26.997745,27.140456 26.997745,27.140456 C 18.528582,18.264221 13.291696,25.230495 11.500037,31.436501 z"
     style="fill:#404040;"/>
  </a>
 </g>
</svg>

<style type='text/css'>
<![CDATA[
[data-mouse-over-selected='false'] { opacity: 0.7; }
[data-mouse-over-selected='true']  { opacity: 1.0; }
]]>
</style>
<script type="application/ecmascript"><![CDATA[
document.addEventListener('DOMContentLoaded', (event) => {
  highlightEdges();
  highlightAdjacentNodes();
});
]]></script>
</svg>
