<?xml version="1.0" encoding="UTF-8" standalone="no"?>
<!DOCTYPE svg PUBLIC "-//W3C//DTD SVG 1.1//EN"
 "http://www.w3.org/Graphics/SVG/1.1/DTD/svg11.dtd">
<!-- Generated by graphviz version 2.43.0 (0)
 -->
<!-- Title: ATrain::Tick60fps Pages: 1 -->
<svg width="939pt" height="460pt"
 viewBox="0.00 0.00 939.00 459.50" xmlns="http://www.w3.org/2000/svg" xmlns:xlink="http://www.w3.org/1999/xlink">
<g id="graph0" class="graph" transform="scale(1 1) rotate(0) translate(4 455.5)">
<title>ATrain::Tick60fps</title>
<!-- Node1 -->
<g id="Node000001" class="node">
<title>Node1</title>
<g id="a_Node000001"><a xlink:title=" ">
<polygon fill="#999999" stroke="#666666" points="99,-264.5 0,-264.5 0,-245.5 99,-245.5 99,-264.5"/>
<text text-anchor="middle" x="49.5" y="-252.5" font-family="Helvetica,sans-Serif" font-size="10.00">ATrain::Tick60fps</text>
</a>
</g>
</g>
<!-- Node2 -->
<g id="Node000002" class="node">
<title>Node2</title>
<g id="a_Node000002"><a xlink:href="classATrain.html#ad24444822dfa3a9c96f0e0028201dfe9" target="_top" xlink:title=" ">
<polygon fill="white" stroke="#666666" points="271,-414.5 167,-414.5 167,-395.5 271,-395.5 271,-414.5"/>
<text text-anchor="middle" x="219" y="-402.5" font-family="Helvetica,sans-Serif" font-size="10.00">ATrain::AddSmoke</text>
</a>
</g>
</g>
<!-- Node1&#45;&gt;Node2 -->
<g id="edge1_Node000001_Node000002" class="edge">
<title>Node1&#45;&gt;Node2</title>
<g id="a_edge1_Node000001_Node000002"><a xlink:title=" ">
<path fill="none" stroke="#63b8ff" d="M54.17,-264.56C63.71,-288.12 91.61,-349.31 135,-381 141.63,-385.84 149.22,-389.71 157.06,-392.8"/>
<polygon fill="#63b8ff" stroke="#63b8ff" points="156.1,-396.17 166.69,-396.2 158.42,-389.57 156.1,-396.17"/>
</a>
</g>
</g>
<!-- Node8 -->
<g id="Node000008" class="node">
<title>Node8</title>
<g id="a_Node000008"><a xlink:href="math__util_8c.html#a151b63b8adf9af7e4054b3b84bd226dc" target="_top" xlink:title=" ">
<polygon fill="white" stroke="#666666" points="617.5,-376.5 545.5,-376.5 545.5,-357.5 617.5,-357.5 617.5,-376.5"/>
<text text-anchor="middle" x="581.5" y="-364.5" font-family="Helvetica,sans-Serif" font-size="10.00">random_int</text>
</a>
</g>
</g>
<!-- Node1&#45;&gt;Node8 -->
<g id="edge15_Node000001_Node000008" class="edge">
<title>Node1&#45;&gt;Node8</title>
<g id="a_edge15_Node000001_Node000008"><a xlink:title=" ">
<path fill="none" stroke="#63b8ff" d="M59.26,-264.75C73.49,-279.87 103.25,-308.63 135,-322 271.72,-379.58 452.17,-376.32 535.18,-370.93"/>
<polygon fill="#63b8ff" stroke="#63b8ff" points="535.55,-374.41 545.28,-370.23 535.06,-367.43 535.55,-374.41"/>
</a>
</g>
</g>
<!-- Node10 -->
<g id="Node000010" class="node">
<title>Node10</title>
<g id="a_Node000010"><a xlink:href="code__80005FD0_8c.html#a4d94bc63f7aa18a802624ea904548946" target="_top" xlink:title=" ">
<polygon fill="white" stroke="#666666" points="273,-313 165,-313 165,-283 273,-283 273,-313"/>
<text text-anchor="start" x="173" y="-301" font-family="Helvetica,sans-Serif" font-size="10.00">adjust_position_by</text>
<text text-anchor="middle" x="219" y="-290" font-family="Helvetica,sans-Serif" font-size="10.00">_angle</text>
</a>
</g>
</g>
<!-- Node1&#45;&gt;Node10 -->
<g id="edge9_Node000001_Node000010" class="edge">
<title>Node1&#45;&gt;Node10</title>
<g id="a_edge9_Node000001_Node000010"><a xlink:title=" ">
<path fill="none" stroke="#63b8ff" d="M87.67,-264.54C107.4,-269.61 132.19,-275.97 154.84,-281.78"/>
<polygon fill="#63b8ff" stroke="#63b8ff" points="154.17,-285.23 164.73,-284.32 155.91,-278.45 154.17,-285.23"/>
</a>
</g>
</g>
<!-- Node13 -->
<g id="Node000013" class="node">
<title>Node13</title>
<g id="a_Node000013"><a xlink:href="external_8c.html#acb60983213d09ee795e80ca3c8b5975e" target="_top" xlink:title=" ">
<polygon fill="white" stroke="#666666" points="265,-264.5 173,-264.5 173,-245.5 265,-245.5 265,-264.5"/>
<text text-anchor="middle" x="219" y="-252.5" font-family="Helvetica,sans-Serif" font-size="10.00">func_800C98B8</text>
</a>
</g>
</g>
<!-- Node1&#45;&gt;Node13 -->
<g id="edge12_Node000001_Node000013" class="edge">
<title>Node1&#45;&gt;Node13</title>
<g id="a_edge12_Node000001_Node000013"><a xlink:title=" ">
<path fill="none" stroke="#63b8ff" d="M99.4,-255C119.22,-255 142.22,-255 162.66,-255"/>
<polygon fill="#63b8ff" stroke="#63b8ff" points="162.77,-258.5 172.77,-255 162.77,-251.5 162.77,-258.5"/>
</a>
</g>
</g>
<!-- Node16 -->
<g id="Node000016" class="node">
<title>Node16</title>
<g id="a_Node000016"><a xlink:href="code__80005FD0_8c.html#a6f8c9c39fb2e2613ec57cd1bda073e1d" target="_top" xlink:title=" ">
<polygon fill="white" stroke="#666666" points="273.5,-227 164.5,-227 164.5,-197 273.5,-197 273.5,-227"/>
<text text-anchor="start" x="172.5" y="-215" font-family="Helvetica,sans-Serif" font-size="10.00">set_vehicle_render</text>
<text text-anchor="middle" x="219" y="-204" font-family="Helvetica,sans-Serif" font-size="10.00">_distance_flags</text>
</a>
</g>
</g>
<!-- Node1&#45;&gt;Node16 -->
<g id="edge16_Node000001_Node000016" class="edge">
<title>Node1&#45;&gt;Node16</title>
<g id="a_edge16_Node000001_Node000016"><a xlink:title=" ">
<path fill="none" stroke="#63b8ff" d="M87.67,-245.46C107.32,-240.41 131.98,-234.08 154.55,-228.29"/>
<polygon fill="#63b8ff" stroke="#63b8ff" points="155.59,-231.64 164.4,-225.76 153.85,-224.86 155.59,-231.64"/>
</a>
</g>
</g>
<!-- Node17 -->
<g id="Node000017" class="node">
<title>Node17</title>
<g id="a_Node000017"><a xlink:href="code__80005FD0_8c.html#a635f355cc0b12fbd4f6eca901ec1dca8" target="_top" xlink:title="sync the train components vehicle with the actor">
<polygon fill="white" stroke="#666666" points="285,-178.5 153,-178.5 153,-159.5 285,-159.5 285,-178.5"/>
<text text-anchor="middle" x="219" y="-166.5" font-family="Helvetica,sans-Serif" font-size="10.00">sync_train_components</text>
</a>
</g>
</g>
<!-- Node1&#45;&gt;Node17 -->
<g id="edge17_Node000001_Node000017" class="edge">
<title>Node1&#45;&gt;Node17</title>
<g id="a_edge17_Node000001_Node000017"><a xlink:title=" ">
<path fill="none" stroke="#63b8ff" d="M59.9,-245.14C74.53,-230.39 104.28,-202.75 135,-188 140,-185.6 145.31,-183.5 150.74,-181.65"/>
<polygon fill="#63b8ff" stroke="#63b8ff" points="152.08,-184.9 160.6,-178.61 150.01,-178.21 152.08,-184.9"/>
</a>
</g>
</g>
<!-- Node18 -->
<g id="Node000018" class="node">
<title>Node18</title>
<g id="a_Node000018"><a xlink:href="code__80005FD0_8c.html#a777de4239351e9266f8b367ce46cb936" target="_top" xlink:title=" ">
<polygon fill="white" stroke="#666666" points="303,-123.5 135,-123.5 135,-104.5 303,-104.5 303,-123.5"/>
<text text-anchor="middle" x="219" y="-111.5" font-family="Helvetica,sans-Serif" font-size="10.00">update_vehicle_following_path</text>
</a>
</g>
</g>
<!-- Node1&#45;&gt;Node18 -->
<g id="edge18_Node000001_Node000018" class="edge">
<title>Node1&#45;&gt;Node18</title>
<g id="a_edge18_Node000001_Node000018"><a xlink:title=" ">
<path fill="none" stroke="#63b8ff" d="M56.1,-245.42C68.19,-225.44 98.62,-178.88 135,-151 147.82,-141.18 163.66,-133.29 178.05,-127.37"/>
<polygon fill="#63b8ff" stroke="#63b8ff" points="179.7,-130.48 187.73,-123.58 177.15,-123.96 179.7,-130.48"/>
</a>
</g>
</g>
<!-- Node3 -->
<g id="Node000003" class="node">
<title>Node3</title>
<g id="a_Node000003"><a xlink:href="update__objects_8c.html#a6e56a43ec98e81db05f2410893efa437" target="_top" xlink:title=" ">
<polygon fill="white" stroke="#666666" points="472.5,-451.5 344.5,-451.5 344.5,-432.5 472.5,-432.5 472.5,-451.5"/>
<text text-anchor="middle" x="408.5" y="-439.5" font-family="Helvetica,sans-Serif" font-size="10.00">add_unused_obj_index</text>
</a>
</g>
</g>
<!-- Node2&#45;&gt;Node3 -->
<g id="edge2_Node000002_Node000003" class="edge">
<title>Node2&#45;&gt;Node3</title>
<g id="a_edge2_Node000002_Node000003"><a xlink:title=" ">
<path fill="none" stroke="#63b8ff" d="M268.29,-414.53C292.9,-419.39 323.04,-425.33 348.97,-430.45"/>
<polygon fill="#63b8ff" stroke="#63b8ff" points="348.56,-433.94 359.05,-432.44 349.92,-427.07 348.56,-433.94"/>
</a>
</g>
</g>
<!-- Node5 -->
<g id="Node000005" class="node">
<title>Node5</title>
<g id="a_Node000005"><a xlink:href="update__objects_8c.html#ad037c2a8787e1f910641893820318379" target="_top" xlink:title=" ">
<polygon fill="white" stroke="#666666" points="457.5,-414.5 359.5,-414.5 359.5,-395.5 457.5,-395.5 457.5,-414.5"/>
<text text-anchor="middle" x="408.5" y="-402.5" font-family="Helvetica,sans-Serif" font-size="10.00">init_train_smoke</text>
</a>
</g>
</g>
<!-- Node2&#45;&gt;Node5 -->
<g id="edge4_Node000002_Node000005" class="edge">
<title>Node2&#45;&gt;Node5</title>
<g id="a_edge4_Node000002_Node000005"><a xlink:title=" ">
<path fill="none" stroke="#63b8ff" d="M271.24,-405C295.35,-405 324.22,-405 349.16,-405"/>
<polygon fill="#63b8ff" stroke="#63b8ff" points="349.23,-408.5 359.23,-405 349.23,-401.5 349.23,-408.5"/>
</a>
</g>
</g>
<!-- Node4 -->
<g id="Node000004" class="node">
<title>Node4</title>
<g id="a_Node000004"><a xlink:href="update__objects_8c.html#a92856990c4ca5fba1b8e0c61ca832c27" target="_top" xlink:title=" ">
<polygon fill="white" stroke="#666666" points="645.5,-451.5 517.5,-451.5 517.5,-432.5 645.5,-432.5 645.5,-451.5"/>
<text text-anchor="middle" x="581.5" y="-439.5" font-family="Helvetica,sans-Serif" font-size="10.00">find_unused_obj_index</text>
</a>
</g>
</g>
<!-- Node3&#45;&gt;Node4 -->
<g id="edge3_Node000003_Node000004" class="edge">
<title>Node3&#45;&gt;Node4</title>
<g id="a_edge3_Node000003_Node000004"><a xlink:title=" ">
<path fill="none" stroke="#63b8ff" d="M472.69,-442C483.95,-442 495.76,-442 507.27,-442"/>
<polygon fill="#63b8ff" stroke="#63b8ff" points="507.29,-445.5 517.29,-442 507.29,-438.5 507.29,-445.5"/>
</a>
</g>
</g>
<!-- Node6 -->
<g id="Node000006" class="node">
<title>Node6</title>
<g id="a_Node000006"><a xlink:href="update__objects_8c.html#abdebd086b5ff081f83af3d9205f39cd3" target="_top" xlink:title=" ">
<polygon fill="white" stroke="#666666" points="615.5,-414.5 547.5,-414.5 547.5,-395.5 615.5,-395.5 615.5,-414.5"/>
<text text-anchor="middle" x="581.5" y="-402.5" font-family="Helvetica,sans-Serif" font-size="10.00">init_object</text>
</a>
</g>
</g>
<!-- Node5&#45;&gt;Node6 -->
<g id="edge5_Node000005_Node000006" class="edge">
<title>Node5&#45;&gt;Node6</title>
<g id="a_edge5_Node000005_Node000006"><a xlink:title=" ">
<path fill="none" stroke="#63b8ff" d="M457.59,-405C482.65,-405 513.07,-405 537.37,-405"/>
<polygon fill="#63b8ff" stroke="#63b8ff" points="537.37,-408.5 547.37,-405 537.37,-401.5 537.37,-408.5"/>
</a>
</g>
</g>
<!-- Node5&#45;&gt;Node8 -->
<g id="edge7_Node000005_Node000008" class="edge">
<title>Node5&#45;&gt;Node8</title>
<g id="a_edge7_Node000005_Node000008"><a xlink:title=" ">
<path fill="none" stroke="#63b8ff" d="M452.65,-395.41C477.98,-389.78 509.95,-382.68 535.58,-376.98"/>
<polygon fill="#63b8ff" stroke="#63b8ff" points="536.42,-380.38 545.42,-374.8 534.9,-373.55 536.42,-380.38"/>
</a>
</g>
</g>
<!-- Node7 -->
<g id="Node000007" class="node">
<title>Node7</title>
<g id="a_Node000007"><a xlink:href="update__objects_8c.html#af20e3f3c403dd4fbea56e358997e515a" target="_top" xlink:title=" ">
<polygon fill="white" stroke="#666666" points="813,-414.5 685,-414.5 685,-395.5 813,-395.5 813,-414.5"/>
<text text-anchor="middle" x="749" y="-402.5" font-family="Helvetica,sans-Serif" font-size="10.00">set_object_timer_state</text>
</a>
</g>
</g>
<!-- Node6&#45;&gt;Node7 -->
<g id="edge6_Node000006_Node000007" class="edge">
<title>Node6&#45;&gt;Node7</title>
<g id="a_edge6_Node000006_Node000007"><a xlink:title=" ">
<path fill="none" stroke="#63b8ff" d="M615.59,-405C632.62,-405 654.09,-405 674.76,-405"/>
<polygon fill="#63b8ff" stroke="#63b8ff" points="674.82,-408.5 684.82,-405 674.82,-401.5 674.82,-408.5"/>
</a>
</g>
</g>
<!-- Node9 -->
<g id="Node000009" class="node">
<title>Node9</title>
<g id="a_Node000009"><a xlink:href="math__util_8c.html#a062850863585005ad1d0a75d9ff70693" target="_top" xlink:title=" ">
<polygon fill="white" stroke="#666666" points="787.5,-376.5 710.5,-376.5 710.5,-357.5 787.5,-357.5 787.5,-376.5"/>
<text text-anchor="middle" x="749" y="-364.5" font-family="Helvetica,sans-Serif" font-size="10.00">random_u16</text>
</a>
</g>
</g>
<!-- Node8&#45;&gt;Node9 -->
<g id="edge8_Node000008_Node000009" class="edge">
<title>Node8&#45;&gt;Node9</title>
<g id="a_edge8_Node000008_Node000009"><a xlink:title=" ">
<path fill="none" stroke="#63b8ff" d="M617.6,-367C641.64,-367 673.82,-367 700.2,-367"/>
<polygon fill="#63b8ff" stroke="#63b8ff" points="700.36,-370.5 710.36,-367 700.36,-363.5 700.36,-370.5"/>
</a>
</g>
</g>
<!-- Node11 -->
<g id="Node000011" class="node">
<title>Node11</title>
<g id="a_Node000011"><a xlink:href="math__util_8c.html#ae69cbf5c8d4b3b0dba2d7b4d4673689f" target="_top" xlink:title=" ">
<polygon fill="white" stroke="#666666" points="427.5,-338.5 389.5,-338.5 389.5,-319.5 427.5,-319.5 427.5,-338.5"/>
<text text-anchor="middle" x="408.5" y="-326.5" font-family="Helvetica,sans-Serif" font-size="10.00">coss</text>
</a>
</g>
</g>
<!-- Node10&#45;&gt;Node11 -->
<g id="edge10_Node000010_Node000011" class="edge">
<title>Node10&#45;&gt;Node11</title>
<g id="a_edge10_Node000010_Node000011"><a xlink:title=" ">
<path fill="none" stroke="#63b8ff" d="M273.23,-306.8C307.79,-312.51 351.45,-319.73 379.43,-324.36"/>
<polygon fill="#63b8ff" stroke="#63b8ff" points="378.89,-327.82 389.33,-326 380.03,-320.91 378.89,-327.82"/>
</a>
</g>
</g>
<!-- Node12 -->
<g id="Node000012" class="node">
<title>Node12</title>
<g id="a_Node000012"><a xlink:href="math__util_8c.html#a19ed3bd78fd2d3e2bd0a29f6caf48545" target="_top" xlink:title=" ">
<polygon fill="white" stroke="#666666" points="426.5,-301.5 390.5,-301.5 390.5,-282.5 426.5,-282.5 426.5,-301.5"/>
<text text-anchor="middle" x="408.5" y="-289.5" font-family="Helvetica,sans-Serif" font-size="10.00">sins</text>
</a>
</g>
</g>
<!-- Node10&#45;&gt;Node12 -->
<g id="edge11_Node000010_Node000012" class="edge">
<title>Node10&#45;&gt;Node12</title>
<g id="a_edge11_Node000010_Node000012"><a xlink:title=" ">
<path fill="none" stroke="#63b8ff" d="M273.23,-296.3C308.02,-295.18 352.03,-293.78 379.98,-292.88"/>
<polygon fill="#63b8ff" stroke="#63b8ff" points="380.32,-296.37 390.21,-292.55 380.1,-289.38 380.32,-296.37"/>
</a>
</g>
</g>
<!-- Node14 -->
<g id="Node000014" class="node">
<title>Node14</title>
<g id="a_Node000014"><a xlink:href="external_8c.html#a747de0be4005b4b29150d5c068564b7d" target="_top" xlink:title=" ">
<polygon fill="white" stroke="#666666" points="454.5,-264.5 362.5,-264.5 362.5,-245.5 454.5,-245.5 454.5,-264.5"/>
<text text-anchor="middle" x="408.5" y="-252.5" font-family="Helvetica,sans-Serif" font-size="10.00">func_800C1C88</text>
</a>
</g>
</g>
<!-- Node13&#45;&gt;Node14 -->
<g id="edge13_Node000013_Node000014" class="edge">
<title>Node13&#45;&gt;Node14</title>
<g id="a_edge13_Node000013_Node000014"><a xlink:title=" ">
<path fill="none" stroke="#63b8ff" d="M265.39,-255C291.43,-255 324.33,-255 351.92,-255"/>
<polygon fill="#63b8ff" stroke="#63b8ff" points="352.2,-258.5 362.2,-255 352.2,-251.5 352.2,-258.5"/>
</a>
</g>
</g>
<!-- Node15 -->
<g id="Node000015" class="node">
<title>Node15</title>
<g id="a_Node000015"><a xlink:href="external_8c.html#a475cff796211891556f52877cd8e9b9e" target="_top" xlink:title=" ">
<polygon fill="white" stroke="#666666" points="444.5,-227.5 372.5,-227.5 372.5,-208.5 444.5,-208.5 444.5,-227.5"/>
<text text-anchor="middle" x="408.5" y="-215.5" font-family="Helvetica,sans-Serif" font-size="10.00">play_sound</text>
</a>
</g>
</g>
<!-- Node13&#45;&gt;Node15 -->
<g id="edge14_Node000013_Node000015" class="edge">
<title>Node13&#45;&gt;Node15</title>
<g id="a_edge14_Node000013_Node000015"><a xlink:title=" ">
<path fill="none" stroke="#63b8ff" d="M265.39,-246.04C294.76,-240.25 332.86,-232.73 362.22,-226.94"/>
<polygon fill="#63b8ff" stroke="#63b8ff" points="363.08,-230.33 372.21,-224.96 361.72,-223.47 363.08,-230.33"/>
</a>
</g>
</g>
<!-- Node19 -->
<g id="Node000019" class="node">
<title>Node19</title>
<g id="a_Node000019"><a xlink:href="code__80005FD0_8c.html#ade9dca16c41c3d924b84f32a203ba823" target="_top" xlink:title=" ">
<polygon fill="white" stroke="#666666" points="468.5,-153 348.5,-153 348.5,-123 468.5,-123 468.5,-153"/>
<text text-anchor="start" x="356.5" y="-141" font-family="Helvetica,sans-Serif" font-size="10.00">find_closest_vehicles</text>
<text text-anchor="middle" x="408.5" y="-130" font-family="Helvetica,sans-Serif" font-size="10.00">_path_point</text>
</a>
</g>
</g>
<!-- Node18&#45;&gt;Node19 -->
<g id="edge19_Node000018_Node000019" class="edge">
<title>Node18&#45;&gt;Node19</title>
<g id="a_edge19_Node000018_Node000019"><a xlink:title=" ">
<path fill="none" stroke="#63b8ff" d="M294.37,-123.52C308.77,-125.36 323.81,-127.29 338.04,-129.11"/>
<polygon fill="#63b8ff" stroke="#63b8ff" points="337.88,-132.62 348.24,-130.42 338.77,-125.67 337.88,-132.62"/>
</a>
</g>
</g>
<!-- Node20 -->
<g id="Node000020" class="node">
<title>Node20</title>
<g id="a_Node000020"><a xlink:href="code__80005FD0_8c.html#a79cd9c001e0a06c9cab23fe2cf070abf" target="_top" xlink:title=" ">
<polygon fill="white" stroke="#666666" points="478,-27.5 339,-27.5 339,-8.5 478,-8.5 478,-27.5"/>
<text text-anchor="middle" x="408.5" y="-15.5" font-family="Helvetica,sans-Serif" font-size="10.00">get_angle_between_path</text>
</a>
</g>
</g>
<!-- Node18&#45;&gt;Node20 -->
<g id="edge20_Node000018_Node000020" class="edge">
<title>Node18&#45;&gt;Node20</title>
<g id="a_edge20_Node000018_Node000020"><a xlink:title=" ">
<path fill="none" stroke="#63b8ff" d="M232.57,-104.49C253.6,-88.95 297.71,-57.93 339,-39 345.69,-35.93 352.94,-33.17 360.14,-30.72"/>
<polygon fill="#63b8ff" stroke="#63b8ff" points="361.42,-33.98 369.86,-27.58 359.27,-27.32 361.42,-33.98"/>
</a>
</g>
</g>
<!-- Node24 -->
<g id="Node000024" class="node">
<title>Node24</title>
<g id="a_Node000024"><a xlink:href="Game_8cpp.html#a545c1a384e93cc7b616dfee707f5d962" target="_top" xlink:title=" ">
<polygon fill="white" stroke="#666666" points="442.5,-104.5 374.5,-104.5 374.5,-85.5 442.5,-85.5 442.5,-104.5"/>
<text text-anchor="middle" x="408.5" y="-92.5" font-family="Helvetica,sans-Serif" font-size="10.00">IsDkJungle</text>
</a>
</g>
</g>
<!-- Node18&#45;&gt;Node24 -->
<g id="edge24_Node000018_Node000024" class="edge">
<title>Node18&#45;&gt;Node24</title>
<g id="a_edge24_Node000018_Node000024"><a xlink:title=" ">
<path fill="none" stroke="#63b8ff" d="M303.06,-105.58C324.12,-103.45 345.91,-101.24 364.1,-99.4"/>
<polygon fill="#63b8ff" stroke="#63b8ff" points="364.49,-102.88 374.09,-98.39 363.78,-95.91 364.49,-102.88"/>
</a>
</g>
</g>
<!-- Node27 -->
<g id="Node000027" class="node">
<title>Node27</title>
<g id="a_Node000027"><a xlink:href="Game_8cpp.html#ad474b8b257813cceeae25ab5205273c4" target="_top" xlink:title=" ">
<polygon fill="white" stroke="#666666" points="457.5,-67.5 359.5,-67.5 359.5,-48.5 457.5,-48.5 457.5,-67.5"/>
<text text-anchor="middle" x="408.5" y="-55.5" font-family="Helvetica,sans-Serif" font-size="10.00">IsKalimariDesert</text>
</a>
</g>
</g>
<!-- Node18&#45;&gt;Node27 -->
<g id="edge27_Node000018_Node000027" class="edge">
<title>Node18&#45;&gt;Node27</title>
<g id="a_edge27_Node000018_Node000027"><a xlink:title=" ">
<path fill="none" stroke="#63b8ff" d="M249.75,-104.47C273.78,-96.84 308.49,-85.97 339,-77 346.58,-74.77 354.64,-72.47 362.48,-70.27"/>
<polygon fill="#63b8ff" stroke="#63b8ff" points="363.55,-73.61 372.24,-67.56 361.67,-66.87 363.55,-73.61"/>
</a>
</g>
</g>
<!-- Node28 -->
<g id="Node000028" class="node">
<title>Node28</title>
<g id="a_Node000028"><a xlink:href="math_8h.html#a37bde043e94a6f074c78f10518fb5d99" target="_top" xlink:title=" ">
<polygon fill="white" stroke="#666666" points="428,-190.5 389,-190.5 389,-171.5 428,-171.5 428,-190.5"/>
<text text-anchor="middle" x="408.5" y="-178.5" font-family="Helvetica,sans-Serif" font-size="10.00">sqrtf</text>
</a>
</g>
</g>
<!-- Node18&#45;&gt;Node28 -->
<g id="edge30_Node000018_Node000028" class="edge">
<title>Node18&#45;&gt;Node28</title>
<g id="a_edge30_Node000018_Node000028"><a xlink:title=" ">
<path fill="none" stroke="#63b8ff" d="M241.66,-123.6C265.29,-133.87 304.4,-150.27 339,-162 351.97,-166.4 366.56,-170.55 378.93,-173.85"/>
<polygon fill="#63b8ff" stroke="#63b8ff" points="378.16,-177.26 388.72,-176.4 379.93,-170.49 378.16,-177.26"/>
</a>
</g>
</g>
<!-- Node21 -->
<g id="Node000021" class="node">
<title>Node21</title>
<g id="a_Node000021"><a xlink:href="math__util_8c.html#a84cf9d4ec33146a64c230ed4cec56632" target="_top" xlink:title=" ">
<polygon fill="white" stroke="#666666" points="649,-30 514,-30 514,0 649,0 649,-30"/>
<text text-anchor="start" x="522" y="-18" font-family="Helvetica,sans-Serif" font-size="10.00">get_angle_between_two</text>
<text text-anchor="middle" x="581.5" y="-7" font-family="Helvetica,sans-Serif" font-size="10.00">_vectors</text>
</a>
</g>
</g>
<!-- Node20&#45;&gt;Node21 -->
<g id="edge21_Node000020_Node000021" class="edge">
<title>Node20&#45;&gt;Node21</title>
<g id="a_edge21_Node000020_Node000021"><a xlink:title=" ">
<path fill="none" stroke="#63b8ff" d="M478.07,-16.8C486.55,-16.65 495.26,-16.5 503.85,-16.34"/>
<polygon fill="#63b8ff" stroke="#63b8ff" points="503.93,-19.84 513.86,-16.17 503.8,-12.85 503.93,-19.84"/>
</a>
</g>
</g>
<!-- Node22 -->
<g id="Node000022" class="node">
<title>Node22</title>
<g id="a_Node000022"><a xlink:href="math__util_8c.html#aaa39a297477f56051975259f4bddd829" target="_top" xlink:title=" ">
<polygon fill="white" stroke="#666666" points="774,-24.5 724,-24.5 724,-5.5 774,-5.5 774,-24.5"/>
<text text-anchor="middle" x="749" y="-12.5" font-family="Helvetica,sans-Serif" font-size="10.00">atan2s</text>
</a>
</g>
</g>
<!-- Node21&#45;&gt;Node22 -->
<g id="edge22_Node000021_Node000022" class="edge">
<title>Node21&#45;&gt;Node22</title>
<g id="a_edge22_Node000021_Node000022"><a xlink:title=" ">
<path fill="none" stroke="#63b8ff" d="M649.34,-15C671.49,-15 695.22,-15 713.86,-15"/>
<polygon fill="#63b8ff" stroke="#63b8ff" points="713.92,-18.5 723.92,-15 713.92,-11.5 713.92,-18.5"/>
</a>
</g>
</g>
<!-- Node23 -->
<g id="Node000023" class="node">
<title>Node23</title>
<g id="a_Node000023"><a xlink:href="math__util_8c.html#a0273b0ea0783a06996c28669a7438ed9" target="_top" xlink:title=" ">
<polygon fill="white" stroke="#666666" points="931,-24.5 849,-24.5 849,-5.5 931,-5.5 931,-24.5"/>
<text text-anchor="middle" x="890" y="-12.5" font-family="Helvetica,sans-Serif" font-size="10.00">atan2_lookup</text>
</a>
</g>
</g>
<!-- Node22&#45;&gt;Node23 -->
<g id="edge23_Node000022_Node000023" class="edge">
<title>Node22&#45;&gt;Node23</title>
<g id="a_edge23_Node000022_Node000023"><a xlink:title=" ">
<path fill="none" stroke="#63b8ff" d="M774.21,-15C791.94,-15 816.63,-15 838.57,-15"/>
<polygon fill="#63b8ff" stroke="#63b8ff" points="838.75,-18.5 848.75,-15 838.75,-11.5 838.75,-18.5"/>
</a>
</g>
</g>
<!-- Node25 -->
<g id="Node000025" class="node">
<title>Node25</title>
<g id="a_Node000025"><a xlink:href="classWorld.html#a1a4dacc6aea0b846df998be0afc239f7" target="_top" xlink:title=" ">
<polygon fill="white" stroke="#666666" points="628,-104.5 535,-104.5 535,-85.5 628,-85.5 628,-104.5"/>
<text text-anchor="middle" x="581.5" y="-92.5" font-family="Helvetica,sans-Serif" font-size="10.00">World::GetTrack</text>
</a>
</g>
</g>
<!-- Node24&#45;&gt;Node25 -->
<g id="edge25_Node000024_Node000025" class="edge">
<title>Node24&#45;&gt;Node25</title>
<g id="a_edge25_Node000024_Node000025"><a xlink:title=" ">
<path fill="none" stroke="#63b8ff" d="M442.88,-95C466.15,-95 497.75,-95 524.8,-95"/>
<polygon fill="#63b8ff" stroke="#63b8ff" points="524.92,-98.5 534.92,-95 524.92,-91.5 524.92,-98.5"/>
</a>
</g>
</g>
<!-- Node26 -->
<g id="Node000026" class="node">
<title>Node26</title>
<g id="a_Node000026"><a xlink:href="Game_8cpp.html#ae2fa844b3cb1021ecbc357f8ed2ad8cc" target="_top" xlink:title=" ">
<polygon fill="white" stroke="#666666" points="612.5,-67.5 550.5,-67.5 550.5,-48.5 612.5,-48.5 612.5,-67.5"/>
<text text-anchor="middle" x="581.5" y="-55.5" font-family="Helvetica,sans-Serif" font-size="10.00">GetWorld</text>
</a>
</g>
</g>
<!-- Node24&#45;&gt;Node26 -->
<g id="edge26_Node000024_Node000026" class="edge">
<title>Node24&#45;&gt;Node26</title>
<g id="a_edge26_Node000024_Node000026"><a xlink:title=" ">
<path fill="none" stroke="#63b8ff" d="M442.88,-87.78C470.79,-81.74 510.68,-73.11 540.33,-66.69"/>
<polygon fill="#63b8ff" stroke="#63b8ff" points="541.32,-70.06 550.36,-64.52 539.84,-63.22 541.32,-70.06"/>
</a>
</g>
</g>
<!-- Node27&#45;&gt;Node25 -->
<g id="edge28_Node000027_Node000025" class="edge">
<title>Node27&#45;&gt;Node25</title>
<g id="a_edge28_Node000027_Node000025"><a xlink:title=" ">
<path fill="none" stroke="#63b8ff" d="M453.54,-67.53C475.79,-72.34 502.99,-78.23 526.49,-83.31"/>
<polygon fill="#63b8ff" stroke="#63b8ff" points="525.8,-86.75 536.32,-85.44 527.28,-79.9 525.8,-86.75"/>
</a>
</g>
</g>
<!-- Node27&#45;&gt;Node26 -->
<g id="edge29_Node000027_Node000026" class="edge">
<title>Node27&#45;&gt;Node26</title>
<g id="a_edge29_Node000027_Node000026"><a xlink:title=" ">
<path fill="none" stroke="#63b8ff" d="M457.59,-58C483.69,-58 515.59,-58 540.35,-58"/>
<polygon fill="#63b8ff" stroke="#63b8ff" points="540.49,-61.5 550.49,-58 540.49,-54.5 540.49,-61.5"/>
</a>
</g>
</g>
</g>
</svg>
